<svg xmlns="http://www.w3.org/2000/svg" xmlns:xlink="http://www.w3.org/1999/xlink" width="78" height="78" viewBox="0 0 78 78">
  <defs>
    <filter id="Caminho_43" x="0" y="0" width="78" height="78" filterUnits="userSpaceOnUse">
      <feOffset dy="2" input="SourceAlpha"/>
      <feGaussianBlur stdDeviation="3" result="blur"/>
      <feFlood flood-color="#5e5d5d" flood-opacity="0.2"/>
      <feComposite operator="in" in2="blur"/>
      <feComposite in="SourceGraphic"/>
    </filter>
  </defs>
  <g id="Grupo_33" data-name="Grupo 33" transform="translate(9 7)">
    <path id="Caminho_41" data-name="Caminho 41" d="M410.124,671.012c-.624,3.085.2-.9.392,1.7A1.267,1.267,0,0,0,410.124,671.012Z" transform="translate(-353.924 -641.334)" fill="#fff"/>
    <path id="Caminho_42" data-name="Caminho 42" d="M409.11,684.967c.046.138.084.276.12.415C409.262,685.185,409.244,685.032,409.11,684.967Z" transform="translate(-353.924 -651.256)" fill="#fff"/>
    <g transform="matrix(1, 0, 0, 1, -9, -7)" filter="url(#Caminho_43)">
      <path id="Caminho_43-2" data-name="Caminho 43" d="M239.542,570.734c-.615-1.282-1.6-2.841-2.18-4.008-2.927-4.553-6.77-8.94-12.037-11.259.22.228-.135.226-.412.14l-.024-.113-.487,0c-.391-.152-.121-.319.22-.2a35.406,35.406,0,0,0-6.1-2.076c-.209.264-1.114-.239-1.254.077-.088-.076.007-.075.08-.126a6.643,6.643,0,0,1-2.941-.644,29.437,29.437,0,0,0-16.973,3.118,30.179,30.179,0,0,0-12.286,12.274c-.029,1.015-.78,2.021-.819,3.16l-.111-.121c-.141.917-.488,1.017-1.039,2.047.161.067-.1.433.228.367.1.443-.617.554-.646,1.147-.1-.007.169.033.049.126-.058,1.516-.1-.329-.819,1.45a50.124,50.124,0,0,0-.472,7.854c-.018-.156.211-.237.221.016-.464.268.187.841.032,1.294-.1-.026-.145-.236-.2-.349a30.011,30.011,0,0,0,.306,3.178c.379.984.283,2.252.718,2.863-.223-.109-.01.488-.023.728.756.544.491,1.994,1.22,2.733l-.1.009a24.31,24.31,0,0,0,4.834,7.411c1.111,1.213,2.107,2.907,3.706,3.9.312.153.179-.106.425.023.355.293-.112.13-.011.291.847.384,1.645,1.307,2.626,1.9.16,0,.442.146.421-.022.888.975,2.647,1.359,3.721,2.1-.219-.612.8.069,1.262.114.226.112.21.238.107.3a22.835,22.835,0,0,1,2.469.879c.531.092.731-.109,1.335.1.312.42,1.3.3,1.893.518-.106-.3.706-.389,1.3-.2l-.242.372c1.982.021,4.879.561,7.155-.2l.2.21c2.337-.535,4.723-.8,6.734-2a9.46,9.46,0,0,0,2.126-.643,4.346,4.346,0,0,0,1.3-1.18.958.958,0,0,1,.662-.066c.935-.444,1.974-.7,2.457-1.478l.14.145a8.624,8.624,0,0,1,2.223-1.958c.082-.3.733-.954.261-.855.244-.266.408.1.531-.31l-.058.451a18.264,18.264,0,0,0,3.747-4.439c.628-.265,1.081-1.562,1.81-2.436.184-.657.957-1.553.791-2.18l.2.057c.407-.786.891-1.872,1.367-2.935.27-.625,0-.716.056-1.246l.2.028a1.445,1.445,0,0,0-.318-1.024c.021-.077.043-.154.064-.232.119-.251.057-.368.253-.7a2.882,2.882,0,0,0,.314,1.2c.292-.67-.077-1.485.337-1.843.175-.557.183-1.016-.032-1.134.075-.027.195-.324.244-.033a2.294,2.294,0,0,0,.006-1,2.645,2.645,0,0,0-.065.291c-.154-.214-.121-.571-.327-.613.022-.184.043-.368.061-.552.18-.013.238.537.389.241l-.327-.967q.076-1.025.077-2.069a28,28,0,0,0-1.31-8.487c.881,1.98.794,4.477,1.588,6.3a3.316,3.316,0,0,0,1.126,2.192A52.249,52.249,0,0,0,239.542,570.734Zm-9.957-10.126c1.155.518,1.616,1.853,2.673,2.043l.414.048c.125.276-.026.386.06.606.3.05.765.793,1.039.746,0,.165-.142.048-.2.1.329.444,1.014.727,1.283,1.189l-.2-.062c.51.92,1.008,1.942,1.5,2.962a28.54,28.54,0,0,0-7.867-8.547c.5.3.994.582,1.467.833C229.8,560.633,229.67,560.6,229.585,560.608Zm-37.823,1.555-.035.034.016-.057A.045.045,0,0,0,191.762,562.163Zm14.363-7.337a.61.61,0,0,1,.268-.051Zm18.126,2.29a.174.174,0,0,1,0,.155l-.179-.088A.34.34,0,0,0,224.25,557.116Zm-7.135-2.252-.268-.051.243.018C217.1,554.843,217.107,554.852,217.115,554.863Zm-9.027-.339q-.175.02-.35.043a2.865,2.865,0,0,0,.3-.078A.22.22,0,0,0,208.088,554.525Zm-2.524.413-.259.056a1.464,1.464,0,0,0,.215-.148A.137.137,0,0,1,205.564,554.937Zm-2.892.7-.044.077c-.148.048-.3.1-.444.148C202.2,555.763,202.27,555.672,202.673,555.641Zm-.8.334-.032.011c.01-.009.022-.017.031-.026A.153.153,0,0,0,201.87,555.975Zm-4.678,2.151q-.207.119-.411.241a.116.116,0,0,0-.019-.048A.829.829,0,0,1,197.191,558.125Zm-3.158,1.605c.225.064-.2.142-.162.3l.48-.092a.52.52,0,0,0-.13.147q-.758.57-1.476,1.188c.083-.208.158-.41.252-.6A11.171,11.171,0,0,0,194.033,559.731ZM239.6,587.986a1.013,1.013,0,0,1-.1.472C239.536,588.3,239.567,588.143,239.6,587.986Zm.258-1.5s0-.006-.007-.009c.011-.079.023-.158.034-.236A.854.854,0,0,1,239.856,586.482Zm-1.892-14.656c.211.373.422.723.633,1.035.184.345.042.4-.06.458Q238.272,572.563,237.964,571.826Z" transform="translate(-172.52 -545.29)" fill="#fff"/>
    </g>
    <path id="Caminho_44" data-name="Caminho 44" d="M255.9,780a.9.9,0,0,0,.254-.1c-.411-.131-.84-.268-1.3-.418Z" transform="translate(-236.226 -734.556)" fill="#fff"/>
    <path id="Caminho_45" data-name="Caminho 45" d="M182.94,692.555c0-.04-.005-.08-.005-.12-.116-.3-.24-.607-.382-.9A2.207,2.207,0,0,0,182.94,692.555Z" transform="translate(-181.52 -656.424)" fill="#fff"/>
    <path id="Caminho_46" data-name="Caminho 46" d="M408.728,676.68c.741,1.474,1.217-.3,1.836-.837C410.008,675.633,409.324,676.533,408.728,676.68Z" transform="translate(-353.924 -644.831)" fill="#fff"/>
  </g>
</svg>
