<svg id="Grupo_1461" data-name="Grupo 1461" xmlns="http://www.w3.org/2000/svg" width="31.361" height="40" viewBox="0 0 31.361 40">
  <path id="Caminho_2257" data-name="Caminho 2257" d="M453.3,116.014a1.373,1.373,0,0,1-.237-.021,1.194,1.194,0,0,1-.952-1.144,30.152,30.152,0,0,1-.315-5.2c.064-1.915.28-2.822,1.969-9.881L455,94.608a9.04,9.04,0,0,1-.269-6.132,5.173,5.173,0,0,1,4.889-3.933,3.675,3.675,0,0,1,3.512,2.97c.4,1.682-.174,3.569-.9,5.962-.3.984-.627,2.064-.928,3.264a2.365,2.365,0,0,0,.974,2.641,3.492,3.492,0,0,0,4.04-.329c2.684-1.944,3.895-6.9,3.675-10.582a6.8,6.8,0,0,0-3.314-5.718,10.639,10.639,0,0,0-9.407-.283,9.478,9.478,0,0,0-5.244,6.461,7,7,0,0,0,.9,5.842,2.082,2.082,0,0,1,.662,1.908l-.2.782c-.1.432-.209.86-.326,1.285a1.644,1.644,0,0,1-.839,1.055,1.7,1.7,0,0,1-1.42.007,7.01,7.01,0,0,1-2.871-2.142c-2.468-3.059-3.3-9.12.025-14.335,3.268-5.12,9.634-7.941,16.261-7.2,6.812.779,11.829,5.3,12.777,11.531.322,2.1.322,8.582-3.477,13.3a11.559,11.559,0,0,1-8.341,4.426,8.106,8.106,0,0,1-5.7-1.745l-.262,1.013c-.9,3.594-1.232,4.935-2.507,7.191a29.506,29.506,0,0,1-2.393,3.572A1.251,1.251,0,0,1,453.3,116.014Zm6.182-29.7a3.44,3.44,0,0,0-3.066,2.7,7.472,7.472,0,0,0,.209,5,1.682,1.682,0,0,1,.1,1l-1.232,5.176c-1.689,7.056-1.866,7.793-1.922,9.531a26.955,26.955,0,0,0,.135,3.562c.545-.772,1.027-1.529,1.466-2.3,1.158-2.046,1.43-3.133,2.333-6.745l1.02-4.022,1.413,1.352a4.542,4.542,0,0,0,.35.425,6.287,6.287,0,0,0,4.808,1.639,9.806,9.806,0,0,0,7.049-3.767c3.02-3.749,3.512-9.3,3.108-11.928-.825-5.413-5.233-9.354-11.23-10.037-5.927-.68-11.662,1.837-14.566,6.394-2.776,4.355-2.252,9.658-.141,12.268a5.285,5.285,0,0,0,2.156,1.618,5.545,5.545,0,0,1,.205-1.126l.2-.8c-.028.057-.142-.131-.234-.241a8.726,8.726,0,0,1-1.331-7.477,11.227,11.227,0,0,1,6.224-7.662,12.338,12.338,0,0,1,11.06.372,8.476,8.476,0,0,1,4.171,7.13c.255,4.256-1.176,9.786-4.4,12.123a5.257,5.257,0,0,1-6.072.361,4.138,4.138,0,0,1-1.7-4.539c.312-1.232.648-2.34.956-3.346.648-2.135,1.158-3.824.871-5.038a1.92,1.92,0,0,0-1.852-1.611Z" transform="translate(-445.763 -76.014)" fill="#ff8674"/>
</svg>
