<svg xmlns="http://www.w3.org/2000/svg" width="40" height="26" viewBox="0 0 40 26">
  <path id="mastercard_inverse" d="M25.733,20.28a.534.534,0,1,1-.533-.52C25.6,19.63,25.733,19.89,25.733,20.28ZM14.4,19.63a.52.52,0,1,0,.533.52A.482.482,0,0,0,14.4,19.63Zm5.733,0c-.267,0-.4.13-.533.39h.933A.421.421,0,0,0,20.133,19.63Zm8.667,0a.52.52,0,1,0,.533.52A.567.567,0,0,0,28.8,19.63ZM40,3.25v19.5A3.26,3.26,0,0,1,36.667,26H3.333A3.26,3.26,0,0,1,0,22.75V3.25A3.26,3.26,0,0,1,3.333,0H36.667A3.26,3.26,0,0,1,40,3.25ZM9.2,11.31a6.521,6.521,0,0,0,6.667,6.5,7.177,7.177,0,0,0,3.467-.91,7.043,7.043,0,0,1-2.667-5.46,7.043,7.043,0,0,1,2.667-5.46,6.587,6.587,0,0,0-3.467-.91A6.39,6.39,0,0,0,9.2,11.31Zm4,8.71a.622.622,0,0,0-.667-.65c-.267,0-.4.13-.667.26a.7.7,0,0,0-.533-.26.537.537,0,0,0-.533.26v-.26h-.4v1.69h.4v-.91c0-.26.133-.52.4-.52a.349.349,0,0,1,.4.39v.91H12v-.91c0-.26.133-.52.4-.52a.349.349,0,0,1,.4.39v.91h.4v-.78Zm2.133-.65h-.4v.26a.7.7,0,0,0-.533-.26.91.91,0,1,0,0,1.82.7.7,0,0,0,.533-.26v.26h.4ZM17.2,20.54a.606.606,0,0,0-.667-.52H16.4c-.133,0-.267,0-.267-.13s.133-.26.4-.26.4.13.533.13l.133-.26a1.02,1.02,0,0,0-.667-.13c-.4,0-.8.26-.8.52s.267.39.667.52h.133c.267,0,.267.13.267.13,0,.13-.133.26-.4.26s-.4-.13-.533-.13l-.133.26a1.929,1.929,0,0,0,.8.26A.622.622,0,0,0,17.2,20.54Zm1.733.39-.133-.26c0,.13-.133.13-.267.13a.283.283,0,0,1-.267-.26v-.78h.667v-.39h-.667v-.52h-.4v.52h-.4v.39h.4v.78c0,.39.133.65.667.65C18.667,21.19,18.8,21.06,18.933,20.93Zm2-.65a.878.878,0,0,0-.8-.91.91.91,0,1,0,0,1.82c.267,0,.533,0,.667-.26l-.133-.26a.818.818,0,0,1-.533.13c-.267,0-.533-.13-.533-.39h1.333Zm1.467-.91h-.267c-.267,0-.4.13-.4.26v-.26h-.4v1.69h.4v-.91a.349.349,0,0,1,.4-.39H22.4Zm.533.91a.483.483,0,0,1,.533-.52.5.5,0,0,1,.4.13L24,19.63a1.032,1.032,0,0,0-.667-.26.91.91,0,1,0,0,1.82A.744.744,0,0,0,24,20.93v-.26a.5.5,0,0,1-.4.13A.606.606,0,0,1,22.933,20.28Zm3.2-.91h-.4v.26a.7.7,0,0,0-.533-.26.91.91,0,1,0,0,1.82.7.7,0,0,0,.533-.26v.26h.4Zm1.6,0h-.267c-.267,0-.4.13-.4.26v-.26h-.4v1.69h.4v-.91a.349.349,0,0,1,.4-.39h.267Zm2-.65h-.4v.91a.7.7,0,0,0-.533-.26.91.91,0,1,0,0,1.82.7.7,0,0,0,.533-.26v.26h.4ZM30.8,11.31a6.521,6.521,0,0,0-6.667-6.5,6.5,6.5,0,1,0,0,13A6.6,6.6,0,0,0,30.8,11.31Z" transform="translate(0)" fill="#ff8674"/>
</svg>
