<svg xmlns="http://www.w3.org/2000/svg" width="40" height="26" viewBox="0 0 40 26">
  <path id="paypal_inverse" d="M36.667,0H3.333A3.26,3.26,0,0,0,0,3.25v19.5A3.26,3.26,0,0,0,3.333,26H36.667A3.26,3.26,0,0,0,40,22.75V3.25A3.26,3.26,0,0,0,36.667,0Zm-18.8,18.07H15.6a.349.349,0,0,1-.4-.39c0-.65.4-2.73,1.733-10.66a.567.567,0,0,1,.533-.52H21.6c2.133,0,3.733,1.3,3.333,3.51q-.6,3.51-4.4,3.51h-1.2c-.533,0-.667.13-.8.65Zm8.4-5.46a3.867,3.867,0,0,1-4.133,3.25h-.267c-.267,0-.4.13-.533.39l-.4,2.73c0,.26-.267.39-.533.39H18.933a.349.349,0,0,1-.4-.39l.8-4.81h1.2c2.933,0,4.667-1.43,5.2-4.16A2.438,2.438,0,0,1,26.4,11.7,1.884,1.884,0,0,1,26.267,12.61Z" fill="#ff8674"/>
</svg>
