<svg xmlns="http://www.w3.org/2000/svg" width="40" height="26" viewBox="0 0 40 26">
  <path id="visa_inverse" d="M32.8,11.57l.667,2.73H31.2l1.067-2.6.4-.91ZM40,3.25v19.5A3.26,3.26,0,0,1,36.667,26H3.333A3.26,3.26,0,0,1,0,22.75V3.25A3.26,3.26,0,0,1,3.333,0H36.667A3.26,3.26,0,0,1,40,3.25ZM11.467,17.81l4.267-9.62H12.8l-2.667,6.63-.267-1.3L8.933,8.97a1.166,1.166,0,0,0-1.2-.78h-4.4v.26a6.568,6.568,0,0,1,2.8,1.04l2.4,8.45Zm8-9.62H16.8l-1.733,9.62h2.667Zm7.733,6.5c0-1.04-.667-1.95-2.267-2.6-.933-.39-1.467-.78-1.467-1.17s.533-.78,1.6-.78a4.17,4.17,0,0,1,2,.39l.267.13.4-2.08a5.7,5.7,0,0,0-2.4-.39c-2.667,0-4.533,1.3-4.533,3.25,0,1.43,1.333,2.21,2.4,2.6,1.067.52,1.467.78,1.333,1.17,0,.65-.8.91-1.6.91A5.528,5.528,0,0,1,20.4,15.6l-.4-.13-.4,2.21a8.648,8.648,0,0,0,3.067.52C25.333,17.94,27.2,16.64,27.2,14.69Zm9.467,3.12L34.533,8.19H32.4a1.446,1.446,0,0,0-1.467.78l-4,8.84h2.8l.533-1.43h3.467L34,17.81Z" fill="#ff8674"/>
</svg>
