<svg id="Layer_1" data-name="Layer 1" xmlns="http://www.w3.org/2000/svg" viewBox="0 0 120 120"><defs><style>.cls-1{fill:#231f20;}.cls-2{fill:#fff;}</style></defs><title>Prancheta 2 cópia 3</title><path class="cls-1" d="M118,60.64c-.32,1.58.1-.45.2.87A.64.64,0,0,0,118,60.64Z"/><path class="cls-1" d="M117.51,67.77a1.72,1.72,0,0,1,.07.21C117.59,67.88,117.58,67.81,117.51,67.77Z"/><path class="cls-1" d="M116,36.9c-1.23-2.57-3.2-5.69-4.36-8C105.83,19.78,98.14,11,87.61,6.36c.44.46-.27.46-.83.28l0-.22h-1c-.78-.3-.24-.64.44-.41A71,71,0,0,0,74,1.85c-.42.53-2.23-.48-2.51.16-.18-.16,0-.15.16-.26A13.16,13.16,0,0,1,65.78.47C54-1.15,42.26,1.56,31.83,6.7A60.39,60.39,0,0,0,7.26,31.25c-.06,2-1.56,4-1.64,6.32l-.22-.24c-.28,1.83-1,2-2.08,4.09.33.14-.19.87.46.74.2.88-1.23,1.11-1.29,2.29-.2,0,.33.07.09.25-.11,3-.2-.65-1.63,2.9C-.06,52.85.17,58.27,0,63.31c0-.31.42-.47.44,0-.92.54.38,1.68.07,2.59-.2-.05-.29-.47-.39-.7-.22,2.33.61,4.16.61,6.36.76,2,.57,4.5,1.44,5.72-.45-.21,0,1,0,1.46,1.51,1.09,1,4,2.44,5.46l-.2,0C6.68,89.41,9.76,94.9,14,99.07c2.23,2.43,4.22,5.82,7.42,7.79.62.31.35-.21.84,0,.71.59-.22.26,0,.58,1.7.77,3.29,2.62,5.25,3.8.33,0,.89.29.85,0,1.77,2,5.29,2.72,7.44,4.19-.44-1.22,1.59.14,2.52.23.45.23.42.48.22.59A44.71,44.71,0,0,1,43.47,118c1.07.18,1.46-.22,2.67.2.63.84,2.6.6,3.79,1-.21-.6,1.41-.77,2.6-.4l-.48.74c4,0,9.76,1.12,14.31-.41l.39.42c4.68-1.07,9.45-1.6,13.47-4a19,19,0,0,0,4.25-1.29,8.69,8.69,0,0,0,2.6-2.36,1.91,1.91,0,0,1,1.33-.13c1.87-.89,3.94-1.41,4.91-3l.28.29A17.42,17.42,0,0,1,98,105.24c.16-.6,1.46-1.9.52-1.7.49-.54.81.2,1.06-.62l-.11.9A36.85,36.85,0,0,0,107,94.94c1.26-.53,2.16-3.13,3.62-4.87.37-1.32,1.91-3.11,1.58-4.36l.39.11c.81-1.57,1.78-3.74,2.74-5.87.54-1.25,0-1.43.11-2.49l.4.06a2.85,2.85,0,0,0-.64-2c0-.16.09-.31.13-.47a8.45,8.45,0,0,1,.51-1.39,5.69,5.69,0,0,0,.63,2.4c.58-1.34-.16-3,.67-3.69.35-1.11.37-2-.06-2.27.15,0,.39-.64.48-.06a4.69,4.69,0,0,0,0-2,3.63,3.63,0,0,0-.13.59c-.31-.43-.25-1.14-.66-1.23,0-.37.09-.73.12-1.1.37,0,.48,1.07.78.48L117,64.78q.15-2,.15-4.14a56,56,0,0,0-2.62-17c1.76,4,1.59,8.95,3.18,12.59.62,3.28,2.22,4.38,2.25,4.38C119.34,52.33,118.54,45,116,36.9ZM96.13,16.65c2.31,1,3.23,3.7,5.35,4.08l.82.1c.25.55,0,.77.12,1.21.6.1,1.53,1.58,2.08,1.49,0,.33-.28.1-.4.2.66.89,2,1.46,2.57,2.38l-.39-.12c1,1.84,2,3.88,3,5.92A56.93,56.93,0,0,0,93.54,14.82c1,.59,2,1.16,2.93,1.67C96.55,16.69,96.3,16.62,96.13,16.65ZM20.48,19.76l-.07.06,0-.11ZM49.21,5.08a1.32,1.32,0,0,1,.53-.1ZM85.46,9.66a.34.34,0,0,1,0,.31l-.36-.17A.69.69,0,0,0,85.46,9.66ZM71.19,5.16l-.54-.11.49,0Zm-18-.68c-.24,0-.47,0-.7.09.24-.06.46-.11.6-.16Zm-5,.82-.52.12a3.3,3.3,0,0,0,.43-.3A.31.31,0,0,1,48.09,5.3ZM42.3,6.71l-.08.16-.89.29C41.36,7,41.5,6.77,42.3,6.71Zm-1.6.67-.07,0,.07-.05Zm-9.36,4.3-.82.48a.36.36,0,0,0,0-.09A1.68,1.68,0,0,1,31.34,11.68ZM25,14.89c.45.13-.41.29-.33.6l1-.18a1.19,1.19,0,0,0-.26.29c-1,.76-2,1.55-2.95,2.38.17-.42.32-.82.51-1.2A23.93,23.93,0,0,0,25,14.89ZM116.16,71.4a2.16,2.16,0,0,1-.2.95C116,72,116.09,71.72,116.16,71.4Zm.51-3h0c0-.16,0-.32.07-.48A2.18,2.18,0,0,1,116.67,68.39Zm-3.78-29.31c.42.75.84,1.45,1.26,2.07s.09.81-.12.92C113.68,41.06,113.3,40.06,112.89,39.08Z"/><path class="cls-1" d="M38.41,116.32a.75.75,0,0,0,.13-.06l-.68-.21Z"/><path class="cls-1" d="M.73,71.65v-.06a3.76,3.76,0,0,0-.2-.46A1.17,1.17,0,0,0,.73,71.65Z"/><path class="cls-1" d="M117.32,63.54c.38.75.63-.15,1-.43C118,63,117.63,63.46,117.32,63.54Z"/><path class="cls-2" d="M95.21,57.32H95l-.43,0-.64,0,.28,0,.56,0,.54,0,.29,0,.45,0,.78-.09.78-.11.45,0h.67l.24,0,.62.08.3,0h.3c.12,0,.32,0,.62,0h2l.26.06.32.09a.79.79,0,0,0,.25,0h.71l.22,0a1.29,1.29,0,0,1,.4.24.51.51,0,0,1,.18.39l0,0v0a1.29,1.29,0,0,1-.15.17.71.71,0,0,1-.14.1.1.1,0,0,1-.13,0s.07,0,.14,0,.11,0,.13,0v.07a.34.34,0,0,1-.09.27.66.66,0,0,1-.22.12,1.35,1.35,0,0,1-.29,0,.67.67,0,0,0-.27.07l-.14.14h-.08a.11.11,0,0,1-.1,0,.54.54,0,0,1,0-.11l-.06-.1a.13.13,0,0,0-.12,0,1,1,0,0,0-.33.06l-.31.16a1.83,1.83,0,0,1-.32.14.75.75,0,0,1-.33,0,.55.55,0,0,1-.18-.1l-.25-.19a.11.11,0,0,1-.09-.05l-.07-.08a.12.12,0,0,1,0,.08.14.14,0,0,1-.09.05l-.14-.06a.41.41,0,0,0-.15-.07l-.33,0-.64.09-.64.11-.33,0c-.13,0-.18-.06-.15-.11a.38.38,0,0,0,0-.16.88.88,0,0,0-.35.06,1.25,1.25,0,0,1-.36.05h-.07s0,0,0,0l-.37,0a.14.14,0,0,0,0-.09.12.12,0,0,0-.08,0l-.19,0L97.5,59l-.14.08a.43.43,0,0,1-.15.06l-.14-.07a.35.35,0,0,0-.15-.07l-.19,0-.3,0-.3,0-.18,0-.11,0L95.67,59l-.18,0-.1,0a.46.46,0,0,0-.16.06c-.07,0-.12.06-.13.08h-.37l-.27,0a1.49,1.49,0,0,1-.25-.07A.37.37,0,0,1,94,58.9a.62.62,0,0,1-.12.12,1.56,1.56,0,0,1-.25.17l-.25.16-.13.06H93.2a.21.21,0,0,0-.06-.08s-.06-.07-.08-.07h-.21a.53.53,0,0,1-.21,0s0,0-.08-.06l-.06-.07h-.15l-.22.07-.21.06.11,0h-.42a.61.61,0,0,0-.26-.14l-.3,0a.67.67,0,0,0-.21,0s0,0,0,0l0,0a.78.78,0,0,1-.21,0,.23.23,0,0,1-.21-.08s-.12-.07-.26-.07a4.94,4.94,0,0,0-.87.08,4.28,4.28,0,0,1-.87.09h-.57l-.1,0-.19-.05-.18,0h-.43l-.1,0a.53.53,0,0,1-.2,0l-.3-.12A1.63,1.63,0,0,1,86,58.9v-.12a1.1,1.1,0,0,1,0-.18c0-.06.06-.1.14-.13a.45.45,0,0,1-.23-.27,1.34,1.34,0,0,1-.06-.36v-.08s0-.07.08-.06H86a.94.94,0,0,1,.28,0h.28l.22,0,.35-.05.36,0,.22,0h.73l.42,0h.34l.26,0,.43-.07.19,0,.31-.06.31,0,.18,0h1l.55,0h.4a.3.3,0,0,0,.24-.09.44.44,0,0,1,.25-.1l1,.15.65.11Zm-7.45.81c0-.08-.07-.11-.17-.11s-.14,0-.13.13,0,.11.12.1A.17.17,0,0,0,87.76,58.13Zm13.54.27c0-.08-.07-.11-.17-.11s-.14.05-.12.13,0,.11.11.1A.19.19,0,0,0,101.3,58.4Zm1.3.28V59l.27-.13Z"/><path class="cls-2" d="M23.47,57.32H23.3l-.43,0-.64,0,.28,0,.55,0,.55,0,.29,0,.44,0,.79-.09.77-.11.46,0H27l.24,0,.62.08.3,0h.3c.12,0,.32,0,.62,0h2l.27.06.32.09a.79.79,0,0,0,.25,0h.7l.23,0a1.15,1.15,0,0,1,.39.24.49.49,0,0,1,.19.39l0,0v0a.87.87,0,0,1-.16.17.45.45,0,0,1-.13.1.12.12,0,0,1-.14,0,.21.21,0,0,0,.15,0c.07,0,.11,0,.12,0v.07a.34.34,0,0,1-.08.27.71.71,0,0,1-.23.12,1.27,1.27,0,0,1-.29,0,.77.77,0,0,0-.27.07l-.13.14h-.08a.12.12,0,0,1-.11,0L32,59a.31.31,0,0,0-.05-.1.13.13,0,0,0-.12,0,.88.88,0,0,0-.33.06l-.31.16a1.83,1.83,0,0,1-.32.14.78.78,0,0,1-.34,0,.72.72,0,0,1-.17-.1L30.14,59a.11.11,0,0,1-.09-.05L30,58.82a.15.15,0,0,1-.05.08.1.1,0,0,1-.08.05l-.14-.06a.37.37,0,0,0-.16-.07l-.33,0-.63.09-.64.11-.33,0c-.13,0-.18-.06-.16-.11a.27.27,0,0,0,0-.16,1,1,0,0,0-.36.06,1.15,1.15,0,0,1-.36.05h-.06s0,0,0,0l-.37,0a.21.21,0,0,0-.05-.09.12.12,0,0,0-.09,0l-.18,0-.24.09-.15.08-.14.06-.14-.07a.41.41,0,0,0-.15-.07L25,59l-.3,0-.3,0-.18,0-.11,0L23.93,59l-.18,0-.1,0a.46.46,0,0,0-.16.06l-.14.08H23l-.27,0L22.46,59a.39.39,0,0,1-.17-.14.84.84,0,0,1-.13.12,1.46,1.46,0,0,1-.24.17l-.25.16-.14.06h-.07a.21.21,0,0,0-.06-.08s-.07-.07-.08-.07h-.21a.62.62,0,0,1-.22,0l-.07-.06-.06-.07H20.6l-.21.07-.21.06.1,0h-.41a.61.61,0,0,0-.26-.14l-.3,0a.82.82,0,0,0-.22,0s0,0,0,0,0,0,0,0a.67.67,0,0,1-.21,0,.22.22,0,0,1-.2-.08s-.12-.07-.26-.07a4.94,4.94,0,0,0-.87.08,4.31,4.31,0,0,1-.88.09H16l-.11,0-.18-.05-.18,0h-.43l-.11,0a.45.45,0,0,1-.19,0,1.74,1.74,0,0,1-.3-.12,1.63,1.63,0,0,1-.28-.16v-.12a1.1,1.1,0,0,1,0-.18c0-.06.06-.1.13-.13a.47.47,0,0,1-.22-.27,1.41,1.41,0,0,1-.07-.36v-.08s.06-.07.09-.06h.09a.91.91,0,0,1,.28,0h.28l.21,0,.36-.05.36,0,.21,0h.74l.42,0h.33l.27,0,.43-.07.19,0,.31-.06.31,0a.77.77,0,0,1,.18,0h.95l.55,0h.4a.32.32,0,0,0,.24-.09.44.44,0,0,1,.24-.1l.95.15.66.11ZM16,58.13c0-.08-.07-.11-.16-.11s-.14,0-.13.13,0,.11.12.1A.16.16,0,0,0,16,58.13Zm13.54.27c0-.08-.06-.11-.16-.11s-.14.05-.13.13,0,.11.12.1A.17.17,0,0,0,29.55,58.4Zm1.3.28V59l.27-.13Z"/><path class="cls-2" d="M47.73,43a3.7,3.7,0,0,0-.1-.75,6.6,6.6,0,0,1-.13-.75v-.58c0-.24,0-.45,0-.64a.87.87,0,0,0-.11-.39c0-.06-.12,0-.21.22a1.86,1.86,0,0,1-.09-.31c-.05-.17-.1-.35-.16-.54s-.11-.36-.15-.52l-.09-.3a1.05,1.05,0,0,0,0-.18l-.06-.31c0-.11,0-.21,0-.32a1.29,1.29,0,0,1,0-.19,1.3,1.3,0,0,1-.09-.21c0-.11-.07-.18-.09-.21a2.56,2.56,0,0,1-.08-.46,2.11,2.11,0,0,0-.12-.51,1.22,1.22,0,0,0-.24-.4.55.55,0,0,0-.47-.14.15.15,0,0,0-.08.05.14.14,0,0,0,0,.1l-.41,0-.67.05-.67,0-.42,0-.12,0-.19,0-.2-.05-.11,0a3.19,3.19,0,0,1-.56,0l-.84-.07a2.81,2.81,0,0,0-.74.06c-.22,0-.32.16-.32.33l0,0-.08-.07s-.06,0-.06-.07a1.09,1.09,0,0,0-.15.46.55.55,0,0,1-.26.41.54.54,0,0,1,0,.27l-.12.47c-.05.17-.09.33-.14.47a1.55,1.55,0,0,0-.06.28s0,.07,0,.14,0,.15-.05.22,0,.16,0,.23a.25.25,0,0,1,0,.12V39c-.06.2-.12.36-.15.49s-.08.27-.12.39a3.84,3.84,0,0,1-.14.4c0,.13-.11.3-.17.51a1.72,1.72,0,0,1-.29.41,1,1,0,0,0-.27.45.75.75,0,0,1,0,.15.42.42,0,0,1,0,.14l-.2.22-.21.22s0,.09,0,.21a.68.68,0,0,1,0,.21.67.67,0,0,1-.16.35.5.5,0,0,1-.26.17,1.08,1.08,0,0,1-.32,0h-.31a.46.46,0,0,1-.15.16h-.06c-.09,0-.15,0-.17-.08a.69.69,0,0,1-.07-.19,2.09,2.09,0,0,0-.08-.23.39.39,0,0,0-.22-.19,3.08,3.08,0,0,0,.23-.42A3.3,3.3,0,0,0,36,42c0-.12,0-.24.06-.36s.05-.26.09-.41a1.06,1.06,0,0,0,0-.18,1.87,1.87,0,0,1,0-.25.46.46,0,0,1,.08-.2s.07,0,.12.05a2.31,2.31,0,0,0,.12-.91c0-.27-.06-.56-.1-.85a.5.5,0,0,0,.08-.15,1.13,1.13,0,0,1,.06-.14s0-.1.06-.21a1.26,1.26,0,0,1,0-.21,1.63,1.63,0,0,0,.14-.14l.15-.17,0-.05,0,0v0l-.09-.08-.06-.06a.28.28,0,0,1,0-.15h.31L37,37l.18.13a.85.85,0,0,1,.05-.21l.06-.21v-.07a.9.9,0,0,0-.09-.34.9.9,0,0,1-.1-.37c0-.05,0-.14,0-.26a.21.21,0,0,1,.15-.24l-.14-.14h.21a.4.4,0,0,1,.24.06.61.61,0,0,1,.12.16l.11.15a.24.24,0,0,0,.17.07.43.43,0,0,0,.17,0,.22.22,0,0,0,.1-.15l-.34,0a.7.7,0,0,1,.32-.59L38,34.78l-.22-.22a.4.4,0,0,1,.06-.13.85.85,0,0,1,.09-.14l.21-.16a1.21,1.21,0,0,0,.2-.15V33.9a.22.22,0,0,0-.1-.21c-.06,0-.1-.13-.11-.28h.15A.71.71,0,0,0,38.2,33a.46.46,0,0,1-.08-.31h.35s0-.1,0-.21a.47.47,0,0,1,0-.22.63.63,0,0,1,0-.13c0-.08,0-.16.07-.26s.06-.19.08-.28a1.89,1.89,0,0,0,.06-.21c.05-.14.08-.25.1-.32a.38.38,0,0,1,.06-.18.48.48,0,0,1,.11-.15,2.14,2.14,0,0,1,.27-.21.18.18,0,0,0,.09-.07l.05-.06s0-.13,0-.3a2.07,2.07,0,0,0-.05-.3.08.08,0,0,1,0-.06v-.09a.54.54,0,0,1,0-.24.53.53,0,0,1,.22-.18L39.22,29a.42.42,0,0,0,.22-.22,1,1,0,0,0,0-.24.47.47,0,0,1,.06-.19.25.25,0,0,1,.22-.08.51.51,0,0,1-.08-.14.85.85,0,0,1-.07-.15v-.05a.78.78,0,0,1,.08-.35,2.38,2.38,0,0,1,.18-.3l.22-.27a1,1,0,0,0,.18-.31,3.81,3.81,0,0,0,.13-.45,1.67,1.67,0,0,1,.16-.41.76.76,0,0,1,.27-.32.81.81,0,0,1,.46-.12.41.41,0,0,1,.29.05.48.48,0,0,0,.3.06l.26,0a.47.47,0,0,0,.22-.13l-.29-.29a.47.47,0,0,1,.25-.17c.12,0,.18-.1.18-.19l0,0v0l-.07-.07a.14.14,0,0,0-.09-.05s0,0,.06-.09.07-.06.1-.06a.92.92,0,0,1,.31,0,2,2,0,0,0,.33,0,.71.71,0,0,1,.13-.1.37.37,0,0,1,.16-.07.22.22,0,0,1,.11,0l.2,0a.41.41,0,0,1,.18,0l.25.11.23.13a.51.51,0,0,1,.15.13.15.15,0,0,1,0,.14,1,1,0,0,0,0,.15s0,0,.07.06a.15.15,0,0,0,.08.05l.16.31.14.27.12.09a.36.36,0,0,1,.11.1.89.89,0,0,0,.07.18l.09.26a2,2,0,0,0,.11.26.49.49,0,0,0,.1.16s-.06.06-.1.13a.35.35,0,0,0-.06.14s0,0,.07.08l.09.07,0,.06v0s0,0,0,0v0s0,0,0,.1a.85.85,0,0,0,.06.17,1.34,1.34,0,0,1,.07.18c0,.05,0,.09,0,.1v.08c0,.18,0,.28.07.31l.13.05a.41.41,0,0,1,.14.1,1.07,1.07,0,0,1,.09.44l-.51,0a.69.69,0,0,0,.14.4,3.37,3.37,0,0,0,.29.35l.28.26c.08.07.13.11.13.14V30s0,0,0,.1a1.07,1.07,0,0,0-.07.19c0,.07,0,.14-.06.19a.62.62,0,0,0,0,.11.21.21,0,0,0,.06.08s.06.05.08.05a.68.68,0,0,1,.09.14l.08.13.12.29c.05.13.1.26.14.39s.09.26.14.38a1.23,1.23,0,0,0,.09.21v.28s-.07.14-.14.28a2.91,2.91,0,0,1-.13.28h-.08l-.06,0a.41.41,0,0,1-.09-.12l-.07-.13a.19.19,0,0,0,0,.1.54.54,0,0,0,0,.11c0,.1,0,.17.07.18a.48.48,0,0,0,.18,0l.17,0s.08.06.08.14,0,0,0,0a0,0,0,0,0,0,0v0a.12.12,0,0,1-.06.09l-.08.07.16.13a1.81,1.81,0,0,1,.18-.23.34.34,0,0,1,.27-.12s0,.05,0,.09a.81.81,0,0,1,0,.11l0,.06-.07.07v.15s0,.06.08.14a.53.53,0,0,1,.06.13s0,.08-.05.15a.29.29,0,0,0-.07.14.18.18,0,0,0,0,.07l.09.06a.44.44,0,0,0,.16.06c.08,0,.13,0,.15.08a.88.88,0,0,1,0,.21c0,.11,0,.18,0,.21a1.24,1.24,0,0,1,.09.28c0,.16.07.25.08.28a1.26,1.26,0,0,0,0,.16,2.26,2.26,0,0,1,0,.27v.41a1.18,1.18,0,0,0,.27.45.7.7,0,0,1,.21.47s0,0,0,0,0,0,0,0v0l-.11.08a.29.29,0,0,1-.14.07l.15.13a.54.54,0,0,1,.12.14s0,.05,0,.13v.14s0,.11.09.24.09.25.15.4.1.28.15.4a1.24,1.24,0,0,0,.1.22l.09.31a1.48,1.48,0,0,1,.06.25,1.13,1.13,0,0,0,0,.14c0,.08,0,.18,0,.3l0,.34c0,.12,0,.21,0,.27a1.18,1.18,0,0,0,.09.4l.12.34a1,1,0,0,1,.06.32.84.84,0,0,1-.13.4l-.14.14-.16.14A.9.9,0,0,1,49,43a.56.56,0,0,1-.08.16h-.14a.27.27,0,0,1-.22-.1c-.08-.09-.13-.12-.13-.11l-.13.07-.14.06a.36.36,0,0,1-.22,0C47.82,43,47.75,43,47.73,43Zm-11.51.08c-.07,0-.09,0-.09.13s0,.13.11.13.11,0,.11-.13S36.3,43.05,36.22,43.05Zm.62-5c-.08,0-.11.06-.11.15s.05.13.13.11.09,0,.09-.13S36.9,38,36.84,38Zm.29.42s0-.08-.07-.08-.08,0-.07.08,0,0,.07,0A.06.06,0,0,0,37.13,38.43Zm.12-1a.13.13,0,0,0-.11.16c0,.1,0,.14.13.13s.09-.05.08-.14S37.31,37.41,37.25,37.41Zm.29,4.24c-.08,0-.12.05-.11.14s0,.14.13.14.09-.06.08-.16S37.6,41.63,37.54,41.65Zm.17-5.41c-.06,0-.1.07-.1.17s0,.13.1.12.1-.05.1-.14S37.78,36.24,37.71,36.24Zm.87-3.12q-.09,0-.09.15t.09.12c.08,0,.12,0,.12-.14S38.66,33.12,38.58,33.12ZM38.66,39c-.08,0-.11,0-.11.14s.05.13.13.13.09,0,.09-.13S38.72,39,38.66,39Zm.62-3.22c-.06,0-.1,0-.1.14s0,.13.1.13.12,0,.12-.13S39.36,35.78,39.28,35.78Zm.27-.46c-.06,0-.1.07-.1.17s0,.13.1.12.1,0,.1-.14S39.62,35.32,39.55,35.32Zm.27-.27c-.08,0-.11.05-.1.14s0,.13.12.13.1,0,.09-.13S39.89,35.05,39.82,35.05Zm.45-4.12-.21.08a.71.71,0,0,0-.2.1l.56,0,0-.16ZM40,33.64c-.05,0-.08,0-.08.07s0,.09.08.06.06,0,.06-.06A.1.1,0,0,0,40,33.64Zm2.4.3h1.12a4.86,4.86,0,0,1,.6.08c.19,0,.29.1.31.17a1.47,1.47,0,0,1,.19-.23l.22-.21h.06l0,0h0l.13,0,.16.07h.13l.08-.07a.15.15,0,0,0,.06-.07v0a.28.28,0,0,1,0,.09.28.28,0,0,0,0,.09h0c0-.06,0-.15,0-.27s0-.2,0-.23a1.22,1.22,0,0,0-.07-.25l-.09-.33a2.9,2.9,0,0,1-.09-.28c0-.07,0-.11-.06-.11l-.29-.14a.51.51,0,0,0,.11-.2s0-.12,0-.22a6.43,6.43,0,0,0-.23-1.22c-.12-.45-.24-.84-.35-1.17a2.25,2.25,0,0,1-.11-.43c-.05-.21-.09-.44-.14-.68S44,28,44,27.74s-.08-.34-.09-.41a.16.16,0,0,1-.13-.09,1,1,0,0,1,0-.17.49.49,0,0,1,0-.17.45.45,0,0,0,0-.13.42.42,0,0,0-.08-.14.42.42,0,0,1-.08-.14.31.31,0,0,0-.09-.15l-.17-.22-.17-.22a.33.33,0,0,1-.07-.14.72.72,0,0,0-.57.23,1.7,1.7,0,0,0-.27.52s0,.09-.05.17a1.83,1.83,0,0,0-.08.25l-.08.26a1.17,1.17,0,0,0,0,.16c-.06,0-.13,0-.19.11a1.79,1.79,0,0,0-.18.34c0,.13-.09.27-.13.39a1.14,1.14,0,0,0-.06.25.19.19,0,0,0,.14.14,1.32,1.32,0,0,1-.21.23l-.29.27-.25.29a.47.47,0,0,0-.11.26.56.56,0,0,1,0,.07.16.16,0,0,0,0,.06l.27-.13.15.38a1.27,1.27,0,0,1,0,.39.1.1,0,0,1-.07,0s0,0,0,0a1.63,1.63,0,0,0-.17.28.67.67,0,0,0-.12.29c0,.07,0,.13,0,.18s.06.09.15.11a.17.17,0,0,1-.09.12l-.12,0a.35.35,0,0,0-.11,0,.23.23,0,0,0-.1.13,1.66,1.66,0,0,1,0,.21.46.46,0,0,1-.09.21.49.49,0,0,1-.21.1l-.21,0h0s0,0,0,0a.22.22,0,0,0,.07.07.15.15,0,0,1,.06.07,2.86,2.86,0,0,1,.16.28,3,3,0,0,0,.15.27h.06a.31.31,0,0,0,.07.15c0,.07,0,.12,0,.14a1.23,1.23,0,0,1-.21.21l-.2.21a1,1,0,0,0,0,.14.21.21,0,0,1,0,.13l-.06.09-.08.08s0,0,0,0a.51.51,0,0,1,0-.13l0-.11s0,0,0,0v.07a.41.41,0,0,0,.28.34,1.08,1.08,0,0,0,.43.12,6.59,6.59,0,0,0,.83-.11A6.76,6.76,0,0,1,42.36,33.94Zm-2-6c-.07,0-.1,0-.1.15s0,.14.1.14.09-.07.09-.16S40.39,27.93,40.33,27.94Zm1.2-.63c-.07,0-.1.05-.1.15s0,.14.1.14.11-.05.11-.14S41.6,27.31,41.53,27.31Zm3,8a.6.6,0,0,0,.56-.36.52.52,0,0,1-.27.15,1.1,1.1,0,0,1-.31,0Z"/><path class="cls-2" d="M61.22,40.38a1,1,0,0,1,.05-.21.46.46,0,0,0,0-.21l-.15-.1c-.08,0-.13,0-.16,0a.27.27,0,0,1-.25.28l-.21,0a.82.82,0,0,0-.24.1l-.2.2-.2.22c-.14.09-.31.19-.5.29s-.38.19-.57.28l-.59.22c-.2.06-.38.1-.53.13a1.8,1.8,0,0,0-.27.07l-.31.08-.28.07-.17,0s-.15,0-.34,0a3.81,3.81,0,0,1-.63-.23,5,5,0,0,1-.69-.41,1.81,1.81,0,0,1-.49-.52.27.27,0,0,0-.27.06c-.08.06-.13.08-.16,0a1.26,1.26,0,0,1-.2-.24c-.1-.13-.2-.28-.3-.44l-.29-.44-.17-.26A1.83,1.83,0,0,1,53,39c0-.23-.07-.47-.11-.72s-.08-.5-.11-.73-.07-.38-.08-.44V37a9.53,9.53,0,0,1,0-1.21c0-.46.05-.93.1-1.42s.1-1,.18-1.42.15-.84.23-1.16a.93.93,0,0,1,0-.13l0-.22c0-.07,0-.15,0-.22s0-.11,0-.12a.64.64,0,0,1,.13-.15l.14-.14c.25-.42.46-.8.66-1.13L55,28.48a6.81,6.81,0,0,0,.31-.61,2.06,2.06,0,0,1,.33-.58.36.36,0,0,1,.17-.14.25.25,0,0,1,.12,0l.13,0a.42.42,0,0,0,.23-.11l.19-.16c.11-.1.23-.21.38-.33s.28-.24.43-.35L57.6,26a.56.56,0,0,1,.22-.09l.3-.05a1.7,1.7,0,0,1,.28,0l.13,0a.43.43,0,0,1,.21-.08.76.76,0,0,1,.21,0l.22.06a.8.8,0,0,0,.27,0h1.14s0-.08.05-.2,0-.26,0-.4,0-.27,0-.39a.55.55,0,0,1,0-.2v0s0,0,0,0,0,0,0,0,0,0,0,0a0,0,0,0,1,0,0l-.14,0-.21-.05-.22-.05-.17,0h-.13a1.63,1.63,0,0,1-.14-.14L59.6,24s-.07,0-.12.05l-.17.17a1.45,1.45,0,0,0-.18.16.19.19,0,0,1-.12.07l-.1-.06-.18-.16-.17-.16c-.06-.05-.09-.07-.11-.07h-.56l-.08.06a.45.45,0,0,0-.05.09l-.11,0-.18,0-.19,0-.11,0-.43.21-.66.38c-.23.13-.44.27-.63.4a1.43,1.43,0,0,0-.37.32l-.06.14a.35.35,0,0,1-.07.14,1,1,0,0,1-.31.25,3,3,0,0,0-.32.2.85.85,0,0,0-.24.26A.76.76,0,0,0,54,27l-.14-.15a.43.43,0,0,0-.15.15v.1a0,0,0,0,0,0,0,.33.33,0,0,0,.06.08s.06.05.09.05a.44.44,0,0,0-.23,0,.43.43,0,0,0-.2.12l.14.24a1.4,1.4,0,0,1,.1.16s0,.08,0,.09l-.26,0-.25,0-.13.14a2.08,2.08,0,0,0-.21.21l-.2.21a.88.88,0,0,0-.14.15,4.52,4.52,0,0,0-.42.62l-.37.65-.14.13s0,.07,0,.14a1.64,1.64,0,0,1,0,.22,1.8,1.8,0,0,1,0,.22.93.93,0,0,1,0,.13l-.13.14a.55.55,0,0,0-.14.15s0,0,0,.07l.1.14a.6.6,0,0,1,.09.15.22.22,0,0,1,0,.1.6.6,0,0,1-.18.11c-.12.07-.19.11-.19.14l0,.13-.06.13v.11a.55.55,0,0,0,0,.18,1.41,1.41,0,0,1,0,.18v.11s0,.08,0,.2,0,.26-.06.4,0,.28,0,.41,0,.18,0,.2a.85.85,0,0,0,0,.27,2.66,2.66,0,0,1,0,.39,2,2,0,0,1-.08.37.36.36,0,0,1-.2.23s0,.14,0,.3.05.33.07.51,0,.34.06.49,0,.25,0,.29a.74.74,0,0,0,.18.12c.12.06.18.11.18.13l-.22.16a1,1,0,0,0-.15.14.15.15,0,0,0-.07.12c0,.55,0,1.09.09,1.61a3.15,3.15,0,0,0,.35,1.34l.08.06.08.08.07,0,.09-.12a2,2,0,0,1,.15-.18,1.53,1.53,0,0,0,0,.18,2.53,2.53,0,0,1,0,.28,2.62,2.62,0,0,1,0,.29,1.36,1.36,0,0,0,0,.15l.16.14c.08.06.15.13.24.21l.23.22.15.14a.32.32,0,0,0,0,.15.46.46,0,0,0,.1.14l.14.07.15.06c0-.1,0-.18,0-.24s0-.12,0-.17,0-.06,0-.06,0,.06.09.15.1.19.15.3l.17.3c0,.1.08.15.1.15s.09,0,.21,0l.21,0,.19.07.32.14.32.13.18.08a.27.27,0,0,0,.12.05.42.42,0,0,1,.15,0,.48.48,0,0,0,.18.06.29.29,0,0,0,.14-.08l0,0a.43.43,0,0,0-.1.16.38.38,0,0,0,0,.1s0,0,0,0a.49.49,0,0,1-.17,0l0,.3-.06,0-.12,0-.18.07-.3.21a.67.67,0,0,1-.05.31c0,.1,0,.18,0,.22a.37.37,0,0,0,.15.06l.15.05a.66.66,0,0,1-.17.14l-.15.06a.14.14,0,0,0-.05.1s0,.1.12.19a1.19,1.19,0,0,1-.34.24l-.27.1a.88.88,0,0,0-.21.12.68.68,0,0,0-.2.27l0,0s0,0,0,0a1,1,0,0,0,.06.13c0,.08.06.12,0,.14s0,0-.07.08l-.08.08a.15.15,0,0,0,0,.08.09.09,0,0,1,0,.07l0,.09a.17.17,0,0,1-.06.09l.35.16.32-.15.15.24h.46a.46.46,0,0,0,.37-.12l.19-.19c.07-.07.06-.14,0-.19l.25-.2s0,0,0,0,0,0,0,0,0-.11.12-.26l.2-.21.19-.19.2.12.44-1.13-.21-.08-.2-.09.1-.12.17-.16c.05-.06.11-.11.15-.17l.1-.12a.63.63,0,0,0,.13-.25s0-.06,0-.08a0,0,0,0,1,0,0,1.19,1.19,0,0,1,.16-.21l.09,0,.14-.19H58.3a4.16,4.16,0,0,1,1.1-.49,4,4,0,0,0,1.11-.51l.12-.09.23-.17.21-.19.13-.1a.85.85,0,0,1,.15-.09l.12-.05a.24.24,0,0,0,.08-.09.38.38,0,0,0,.06-.19v-.71Zm-3-16c.08,0,.12.05.12.14s0,.15-.12.15-.09-.05-.09-.15S58.12,24.4,58.18,24.4Zm-7,11.34c-.07,0-.1,0-.1-.14s0-.14.1-.14.09,0,.09.14S51.25,35.74,51.19,35.74Zm.6-2.64V33h.29Zm.3-3.4q0-.15.09-.15c.06,0,.1.05.1.15s0,.14-.08.14S52.1,29.79,52.09,29.7Zm.26,8.48c-.06,0-.1,0-.1-.15s0-.14.1-.14.1,0,.1.14S52.42,38.18,52.35,38.18Zm.26-9.33c0-.09,0-.14.09-.14s.12.05.13.14,0,.15-.11.15S52.62,29,52.61,28.85Zm1.68,17.07s-.1,0-.19,0S54,45.84,54,45.8s.09,0,.18,0S54.33,45.88,54.29,45.92Zm1-1.46c-.08,0-.1-.09-.08-.14s.08,0,.16,0,.1.09.08.13S55.35,44.51,55.27,44.46Zm4.33-3.25v-.14h.29Zm1,.28c-.06,0-.09-.06-.09-.16s0-.14.09-.12.12.06.12.16S60.64,41.51,60.56,41.49Zm.72-.17s-.07.07-.14.06a.21.21,0,0,1-.15-.1s0,0,0,0a.17.17,0,0,1,.12,0l.11,0S61.29,41.31,61.28,41.32Z"/><path class="cls-2" d="M75.19,43a3.7,3.7,0,0,0-.1-.75,6.83,6.83,0,0,1-.14-.75v-.58a6.11,6.11,0,0,0,0-.64.89.89,0,0,0-.1-.39c0-.06-.13,0-.22.22,0,0,0-.14-.08-.31s-.1-.35-.16-.54-.11-.36-.15-.52l-.09-.3a1.05,1.05,0,0,0,0-.18L74,37.92,74,37.6c0-.1,0-.16,0-.19a.74.74,0,0,1-.09-.21L73.77,37a2.5,2.5,0,0,1-.09-.46,2.1,2.1,0,0,0-.11-.51,1.22,1.22,0,0,0-.24-.4.55.55,0,0,0-.47-.14s0,0-.09.05a.16.16,0,0,0,0,.1l-.41,0-.67.05-.67,0-.42,0-.12,0-.19,0-.2-.05-.12,0a3.23,3.23,0,0,1-.56,0l-.83-.07a2.92,2.92,0,0,0-.75.06c-.21,0-.32.16-.32.33l0,0-.07-.07s-.06,0-.06-.07a1.25,1.25,0,0,0-.16.46.54.54,0,0,1-.25.41.48.48,0,0,1,0,.27c0,.15-.07.31-.11.47s-.09.33-.14.47a2.08,2.08,0,0,0-.07.28.45.45,0,0,1,0,.14,1.43,1.43,0,0,1,0,.22c0,.08,0,.16,0,.23a.49.49,0,0,1,0,.12V39c-.07.2-.12.36-.16.49a3.64,3.64,0,0,1-.11.39c0,.13-.09.26-.14.4s-.11.3-.17.51a1.72,1.72,0,0,1-.29.41,1,1,0,0,0-.27.45.44.44,0,0,1,0,.15.3.3,0,0,1,0,.14l-.2.22-.21.22s0,.09,0,.21a.68.68,0,0,1,0,.21.67.67,0,0,1-.16.35.5.5,0,0,1-.26.17,1.1,1.1,0,0,1-.32,0h-.31a.46.46,0,0,1-.15.16h-.06a.19.19,0,0,1-.18-.08,1.45,1.45,0,0,1-.06-.19,2.09,2.09,0,0,0-.08-.23.39.39,0,0,0-.22-.19,3.08,3.08,0,0,0,.23-.42,3.3,3.3,0,0,0,.12-.38l.06-.36c0-.12.05-.26.09-.41a1.06,1.06,0,0,0,0-.18,1.87,1.87,0,0,1,0-.25.46.46,0,0,1,.08-.2s.07,0,.12.05a2.51,2.51,0,0,0,.12-.91c0-.27-.06-.56-.1-.85a.5.5,0,0,0,.08-.15.48.48,0,0,1,.06-.14,1.26,1.26,0,0,0,0-.21c0-.11,0-.19.06-.21l.14-.14.15-.17,0-.05,0,0v0l-.09-.08-.06-.06a.28.28,0,0,1,0-.15h.31L64.47,37l.18.13a1.23,1.23,0,0,1,0-.21c0-.11.06-.18.07-.21v-.07a.9.9,0,0,0-.09-.34.77.77,0,0,1-.1-.37c0-.05,0-.14,0-.26a.22.22,0,0,1,.14-.24l-.13-.14h.21a.35.35,0,0,1,.23.06.48.48,0,0,1,.13.16l.11.15a.22.22,0,0,0,.17.07.43.43,0,0,0,.17,0,.22.22,0,0,0,.1-.15l-.35,0a.69.69,0,0,1,.33-.59l-.22-.18a2.19,2.19,0,0,1-.22-.22.4.4,0,0,1,.06-.13.48.48,0,0,1,.09-.14l.21-.16a1.21,1.21,0,0,0,.2-.15V33.9a.22.22,0,0,0-.1-.21c-.06,0-.1-.13-.11-.28h.15a.61.61,0,0,0-.08-.38.53.53,0,0,1-.07-.31h.35s0-.1,0-.21,0-.19,0-.22a.63.63,0,0,1,0-.13c0-.08,0-.16.07-.26s0-.19.08-.28a1.89,1.89,0,0,0,.06-.21c0-.14.08-.25.1-.32a.56.56,0,0,1,0-.18.79.79,0,0,1,.12-.15,2.14,2.14,0,0,1,.27-.21.18.18,0,0,0,.09-.07l0-.06s0-.13,0-.3a2.07,2.07,0,0,0,0-.3.08.08,0,0,1,0-.06v-.09a.54.54,0,0,1,0-.24.47.47,0,0,1,.22-.18L66.68,29a.37.37,0,0,0,.21-.22.69.69,0,0,0,0-.24.47.47,0,0,1,.06-.19.25.25,0,0,1,.22-.08.51.51,0,0,1-.08-.14.85.85,0,0,1-.07-.15v-.05a.67.67,0,0,1,.08-.35,2.38,2.38,0,0,1,.18-.3l.22-.27a1,1,0,0,0,.18-.31c0-.15.09-.3.13-.45a1.67,1.67,0,0,1,.16-.41.76.76,0,0,1,.27-.32.78.78,0,0,1,.46-.12.38.38,0,0,1,.28.05.51.51,0,0,0,.3.06l.27,0a.47.47,0,0,0,.22-.13l-.29-.29a.43.43,0,0,1,.25-.17c.12,0,.17-.1.17-.19l0,0v0l-.06-.07s-.06-.05-.09-.05,0,0,.06-.09.07-.06.09-.06a1,1,0,0,1,.32,0,2,2,0,0,0,.32,0l.14-.1a.37.37,0,0,1,.16-.07.2.2,0,0,1,.11,0l.2,0a.44.44,0,0,1,.18,0l.25.11.23.13a.69.69,0,0,1,.15.13.24.24,0,0,1,0,.14,1,1,0,0,0,0,.15s0,0,.07.06a.15.15,0,0,0,.08.05l.16.31a2.39,2.39,0,0,1,.13.27l.13.09a.36.36,0,0,1,.11.1l.06.18a2,2,0,0,1,.1.26,2,2,0,0,0,.11.26.88.88,0,0,0,.09.16.44.44,0,0,0-.09.13.35.35,0,0,0-.06.14s0,0,.07.08l.08.07,0,.06s0,0,0,0a0,0,0,0,0,0,0v0s0,0,0,.1,0,.12.07.17a1.34,1.34,0,0,1,.07.18c0,.05,0,.09,0,.1v.08c0,.18,0,.28.07.31l.13.05a.41.41,0,0,1,.14.1,1.07,1.07,0,0,1,.09.44l-.51,0a.69.69,0,0,0,.14.4,2.45,2.45,0,0,0,.29.35,3.2,3.2,0,0,0,.28.26c.08.07.12.11.12.14V30l0,.1a1.07,1.07,0,0,0-.07.19c0,.07,0,.14-.06.19a.62.62,0,0,0,0,.11.21.21,0,0,0,.06.08s.06.05.08.05l.09.14.08.13c0,.07.06.16.12.29s.1.26.14.39.09.26.14.38l.08.21v.28s-.07.14-.13.28a2.25,2.25,0,0,1-.14.28h-.07l-.06,0a.41.41,0,0,1-.09-.12L74,32.83a.29.29,0,0,0,0,.1S74,33,74,33s0,.17.08.18a.48.48,0,0,0,.18,0l.17,0s.08.06.08.14v0a0,0,0,0,0,0,0v0a.12.12,0,0,1-.06.09l-.08.07.16.13a1.81,1.81,0,0,1,.18-.23.34.34,0,0,1,.26-.12.34.34,0,0,1,0,.09.18.18,0,0,1,0,.11s0,0,0,.06l-.07.07v.15l.08.14,0,.13s0,.08,0,.15a.29.29,0,0,0-.07.14.11.11,0,0,0,0,.07l.08.06a.52.52,0,0,0,.17.06c.08,0,.13,0,.14.08s0,.09,0,.21,0,.18,0,.21a.78.78,0,0,1,.1.28,1.53,1.53,0,0,0,.08.28,1.26,1.26,0,0,0,0,.16c0,.08,0,.17,0,.27v.41a1.18,1.18,0,0,0,.27.45.7.7,0,0,1,.21.47s0,0,0,0,0,0,0,0v0l-.11.08a.29.29,0,0,1-.14.07l.15.13a.54.54,0,0,1,.12.14.24.24,0,0,1,0,.13v.14l.09.24.14.4c0,.14.11.28.16.4a1.24,1.24,0,0,0,.1.22l.09.31a1.48,1.48,0,0,1,.06.25,1.13,1.13,0,0,0,0,.14c0,.08,0,.18,0,.3s0,.23,0,.34,0,.21,0,.27a1.18,1.18,0,0,0,.09.4l.12.34a1,1,0,0,1,.06.32.87.87,0,0,1-.14.4.63.63,0,0,1-.13.14l-.16.14a.54.54,0,0,1,0,.15.4.4,0,0,1-.07.16h-.14a.27.27,0,0,1-.22-.1c-.09-.09-.13-.12-.13-.11l-.13.07-.14.06a.36.36,0,0,1-.22,0C75.28,43,75.21,43,75.19,43Zm-11.51.08c-.07,0-.1,0-.09.13s0,.13.11.13.11,0,.1-.13A.11.11,0,0,0,63.68,43.05Zm.62-5a.12.12,0,0,0-.11.15c0,.09,0,.13.13.11s.09,0,.08-.13S64.36,38,64.3,38Zm.29.42s0-.08-.07-.08-.08,0-.07.08a.06.06,0,0,0,.07,0S64.57,38.47,64.59,38.43Zm.11-1c-.07,0-.11.07-.1.16s.05.14.12.13.1-.05.09-.14S64.77,37.41,64.7,37.41ZM65,41.65c-.07,0-.11.05-.1.14s0,.14.12.14.1-.06.09-.16S65.06,41.63,65,41.65Zm.18-5.41c-.07,0-.1.07-.1.17s0,.13.1.12.1-.05.1-.14S65.23,36.24,65.17,36.24ZM66,33.12c-.06,0-.1.06-.1.15s0,.13.1.12.12,0,.12-.14S66.12,33.12,66,33.12ZM66.12,39c-.08,0-.11,0-.11.14s0,.13.13.13.09,0,.09-.13S66.18,39,66.12,39Zm.62-3.22c-.07,0-.1,0-.1.14s0,.13.1.13.11,0,.11-.13S66.82,35.78,66.74,35.78Zm.27-.46c-.07,0-.1.07-.1.17s0,.13.1.12.1,0,.1-.14S67.07,35.32,67,35.32Zm.27-.27c-.08,0-.11.05-.11.14s0,.13.13.13.09,0,.09-.13S67.35,35.05,67.28,35.05Zm.45-4.12-.21.08a.59.59,0,0,0-.2.1l.56,0,0-.16Zm-.31,2.71c-.06,0-.08,0-.08.07s0,.09.08.06a.06.06,0,0,0,0-.06A.1.1,0,0,0,67.42,33.64Zm2.4.3h1.12a4.86,4.86,0,0,1,.6.08c.18,0,.29.1.31.17A1.47,1.47,0,0,1,72,34l.22-.21h0s0,0,0,0l0,0h0l.13,0,.16.07h.13a.3.3,0,0,1,.08-.07.15.15,0,0,0,.06-.07v0s0,.06,0,.09a.28.28,0,0,0,0,.09h0c0-.06,0-.15,0-.27s0-.2,0-.23,0-.15-.07-.25-.06-.22-.1-.33-.06-.2-.08-.28-.05-.11-.06-.11l-.29-.14a.69.69,0,0,0,.11-.2v-.22a6.33,6.33,0,0,0-.22-1.22Q72,30,71.83,29.52a4.19,4.19,0,0,1-.1-.43c0-.21-.09-.44-.14-.68s-.09-.46-.13-.67-.08-.34-.09-.41a.15.15,0,0,1-.13-.09,1,1,0,0,1,0-.17V26.9a.18.18,0,0,0,0-.13.33.33,0,0,0-.07-.14.42.42,0,0,1-.08-.14.31.31,0,0,0-.09-.15l-.17-.22-.17-.22a.33.33,0,0,1-.07-.14A.73.73,0,0,0,70,26a1.69,1.69,0,0,0-.26.52s0,.09-.06.17,0,.16-.07.25l-.08.26a.5.5,0,0,0,0,.16c-.06,0-.13,0-.19.11a1.36,1.36,0,0,0-.18.34c0,.13-.09.27-.13.39a1.14,1.14,0,0,0-.06.25.14.14,0,0,0,0,.09.15.15,0,0,0,.08,0,.91.91,0,0,1-.2.23l-.29.27a3,3,0,0,0-.25.29.47.47,0,0,0-.11.26.56.56,0,0,1,0,.07.16.16,0,0,0,0,.06l.27-.13.15.38a1.27,1.27,0,0,1,.05.39.1.1,0,0,1-.07,0s0,0,0,0a1.63,1.63,0,0,0-.17.28.67.67,0,0,0-.12.29c0,.07,0,.13,0,.18s.06.09.15.11a.2.2,0,0,1-.09.12l-.12,0a.53.53,0,0,0-.12,0,.22.22,0,0,0-.09.13,1.66,1.66,0,0,1-.05.21.46.46,0,0,1-.09.21.67.67,0,0,1-.21.1l-.22,0h0s0,0,0,0l.08.07a.15.15,0,0,1,.06.07,1.87,1.87,0,0,1,.15.28,2.31,2.31,0,0,0,.16.27H68a.31.31,0,0,0,.07.15c0,.07.05.12,0,.14a1,1,0,0,1-.2.21l-.2.21a1,1,0,0,0,0,.14.35.35,0,0,1,0,.13.3.3,0,0,1-.06.09l-.08.08s0,0,0,0l0-.13a.2.2,0,0,0,0-.11s0,0,0,0v.07a.44.44,0,0,0,.29.34,1.08,1.08,0,0,0,.43.12,6.59,6.59,0,0,0,.83-.11A6.49,6.49,0,0,1,69.82,33.94Zm-2-6q-.09,0-.09.15c0,.09,0,.14.09.14s.1-.07.1-.16S67.85,27.93,67.78,27.94ZM69,27.31c-.07,0-.1.05-.1.15s0,.14.1.14.11-.05.11-.14S69.06,27.31,69,27.31Zm3,8a.61.61,0,0,0,.56-.36.52.52,0,0,1-.27.15,1.15,1.15,0,0,1-.31,0Z"/><path class="cls-2" d="M81.88,20.66a.59.59,0,0,0,.15.15.83.83,0,0,0,.16.14s0,.09,0,.2,0,.17,0,.18,0,0,0,.09-.08.08-.07.1l-.19.27-.16.37c-.07.1-.13.17-.15.21l0,.07,0,0-.09.06-.23.23a1.91,1.91,0,0,1-.17.22,1.41,1.41,0,0,1-.18.2.61.61,0,0,0,0,.11s0,.11,0,.17a1.42,1.42,0,0,0-.05.16.64.64,0,0,1,0,.1l-.2.15a.24.24,0,0,1-.21.08.36.36,0,0,0-.24,0,.13.13,0,0,1-.15-.05l-.18-.18a1.32,1.32,0,0,1-.18-.18.64.64,0,0,1-.08-.14.36.36,0,0,1-.08-.15v-.08a.08.08,0,0,1,0-.05.54.54,0,0,1,.12-.14.73.73,0,0,0,.11-.13.92.92,0,0,1,.13-.18c.07-.09.1-.14.09-.17a.89.89,0,0,1,.18-.32l.31-.41a5,5,0,0,0,.32-.44,1.8,1.8,0,0,0,.23-.46l.25-.18.26-.18A.73.73,0,0,1,81.88,20.66Zm-2.31,2.45q0,.11.12.09c.08,0,.12,0,.12-.1a.11.11,0,0,0-.14-.09C79.59,23,79.56,23.05,79.57,23.11ZM80.93,43.2c-.05,0-.08,0-.08,0s0,0,0,.06a0,0,0,0,1,0,.05s0,0-.08,0a.44.44,0,0,1-.37-.19,1.66,1.66,0,0,1-.25-.38v-.71a.87.87,0,0,0,0-.13.42.42,0,0,0-.09-.14,1.2,1.2,0,0,1-.14-.49c0-.24-.06-.51-.08-.81s0-.64,0-1,0-.67,0-1,0-.59,0-.84,0-.43,0-.55v-1s0,0,0-.11a.84.84,0,0,1,0-.17l0-.18a.43.43,0,0,0,0-.1v-.15c0-.11,0-.17-.07-.21s-.08-.09-.08-.2,0-.17.08-.2a.17.17,0,0,0,.07-.16v-.08l-.07-.06-.08-.07a1.91,1.91,0,0,1-.1-.23.35.35,0,0,1,0-.19s0,0,.08-.07a.85.85,0,0,0,.18-.1.66.66,0,0,0,.18-.19.88.88,0,0,0,.13-.35.65.65,0,0,1-.25,0,.21.21,0,0,1-.18-.16s0-.13,0-.32,0-.4.07-.63,0-.45.06-.64,0-.3,0-.32,0-.17,0-.3a2.68,2.68,0,0,1,0-.4,1,1,0,0,1,.12-.36.32.32,0,0,1,.3-.15.87.87,0,0,1-.27-.27s0,0,0,0v-.07s0,0,0,0l.08-.08a.77.77,0,0,1,.13-.12,1.85,1.85,0,0,0,.14-.14l.07-.08V29a.53.53,0,0,1-.3.29,1.14,1.14,0,0,1-.41.07V28.14c.07,0,.12-.09.13-.22s0-.29.05-.46a2.71,2.71,0,0,1,.1-.51.5.5,0,0,1,.28-.35l-.07-.06-.07-.09c0-.05,0-.12-.08-.21a1.43,1.43,0,0,1-.09-.27c0-.09,0-.17-.08-.24s0-.11,0-.12a.72.72,0,0,1,.12-.31,1,1,0,0,1,.17-.25l.12.12h.08s.07,0,.15,0,0,0,0,0,0,0,0-.05a.26.26,0,0,1-.06-.15c0-.08,0-.12-.06-.14a2.8,2.8,0,0,1,.34-.43.68.68,0,0,1,.5-.16s0,0,0,0h-.17s0,0,.08.13,0,.14.08.14a.87.87,0,0,0,.25.07,1.31,1.31,0,0,0,.27,0c0,1,0,1.94,0,2.93s0,2,0,2.94c0,.06,0,.22,0,.48s0,.55,0,.86,0,.59,0,.85,0,.43,0,.49-.06.06-.09.13a.64.64,0,0,0,0,.16l.06.05.08.08a.86.86,0,0,1,.08.26c0,.15.06.25.07.3v.15a.7.7,0,0,1-.15.43.66.66,0,0,0-.14.34v.07s0,.06.08.14a.43.43,0,0,1,.06.15v.29c0,.18,0,.31,0,.4s0,.19,0,.36v.35l-.14.13s0,0,0,0V37l0,0c0,.27,0,.5,0,.71s0,.42,0,.67,0,.47,0,.69a4.18,4.18,0,0,0,.06.56.58.58,0,0,0,.11.32.4.4,0,0,1-.07.13l-.08.14a1,1,0,0,0,0,.14.45.45,0,0,1,0,.14s0,.08-.14.15-.14.12-.14.14a.62.62,0,0,0,.14.21.93.93,0,0,1,.14.21v.12a.17.17,0,0,0,0,.07s0,.06,0,.08a.63.63,0,0,1,0,.23l-.09.14a.58.58,0,0,0-.17.34.68.68,0,0,0,0,.21v.21a.54.54,0,0,0-.07.19.49.49,0,0,1-.08.2l.29.13-.14.15-.15.14,0,0h0l-.06,0a.29.29,0,0,1-.07-.14A.5.5,0,0,0,81,43.2ZM80,40.27c-.06,0-.1,0-.1.14s0,.14.1.14.1,0,.1-.14S80.09,40.27,80,40.27Zm.64-14.53c-.08,0-.12.05-.12.14s0,.15.12.15.1-.05.1-.15S80.72,25.74,80.66,25.74Zm.15,2.82c-.06,0-.09.05-.09.14s0,.14.09.14.12,0,.12-.14S80.89,28.56,80.81,28.56Zm.28-3.24c-.07,0-.1.05-.1.14s0,.15.1.15.09-.05.09-.15S81.15,25.32,81.09,25.32Zm.11-3c0,.06.06.09.15.08s.12-.05.1-.12,0-.09-.12-.07S81.2,22.23,81.2,22.29Zm.27,13.22c-.07,0-.11.05-.11.15s0,.14.11.14.1,0,.1-.14S81.54,35.51,81.47,35.51Zm0-7.24c-.06,0-.09,0-.09.13s0,.14.09.14.1-.05.1-.14S81.58,28.27,81.51,28.27Z"/><path class="cls-2" d="M41,62.75a2,2,0,0,0-.12-.27.78.78,0,0,0-.27-.07l-.27,0a.9.9,0,0,0-.19-.11c-.12-.06-.19-.12-.2-.17a.4.4,0,0,1,0-.18c0-.11,0-.18,0-.21a.57.57,0,0,0-.12-.27l-.14-.15-.12-.18a.9.9,0,0,1-.05-.34.85.85,0,0,1,0-.33.37.37,0,0,1,.11-.15l.11-.09s0-.07,0-.14a4,4,0,0,0-.08-.78,4,4,0,0,1-.07-.78v-.65a.27.27,0,0,1,.07-.13.42.42,0,0,0,.08-.14.4.4,0,0,0-.06-.13l-.09-.13v-.13l.22-.2a1.16,1.16,0,0,0,.19-.21v0a.06.06,0,0,1,0,0,.09.09,0,0,0,0,0,.27.27,0,0,0-.08-.22.25.25,0,0,1-.09-.23,1,1,0,0,1,.06-.36,1.69,1.69,0,0,1,.17-.29l.18-.29a1.52,1.52,0,0,0,.15-.34.5.5,0,0,0,0-.19v-.56a.35.35,0,0,0,0-.17s0,0,0,.06,0,.1,0,.09l.14-.06c.08,0,.12-.06.12-.07a.53.53,0,0,0,.09-.21,1.7,1.7,0,0,1,.06-.18s.06-.09.12-.2a1,1,0,0,1,.14-.2l.13-.13a.46.46,0,0,0,.13-.15.92.92,0,0,0,.14-.25c.07-.13.12-.22.14-.27v-.15c.06-.11.11-.15.16-.13s.12,0,.24,0,.25-.36.42-.58a.76.76,0,0,1,.66-.34,1.63,1.63,0,0,0,0-.21c0-.12.05-.18.08-.19a.55.55,0,0,1,.27,0h.27l.11-.05.17-.09.16-.09.1,0a3.29,3.29,0,0,1,.64-.12q.33,0,.66,0a1.91,1.91,0,0,1,.48.07c.19.05.37.12.56.19a3.79,3.79,0,0,1,.48.21c.13.07.19.12.19.15s0,0,.08,0l.18,0,.26,0c0,.14.08.25.11.34s.07.2.11.34,0,.05-.08.11l-.16.18-.15.17s-.06.08,0,.08a.69.69,0,0,1-.23-.12.69.69,0,0,0-.23-.12,1.53,1.53,0,0,1-.3,0,.19.19,0,0,1-.1,0L46.7,52l-.29,0a1.44,1.44,0,0,1-.29-.09l-.27-.1-.25,0-.33,0-.3,0-.19,0a.35.35,0,0,0-.15.07c-.07,0-.11.08-.13.08L44.41,52l-.18-.1-.18-.1c-.06,0-.1,0-.11,0a1,1,0,0,0-.2.18,2,2,0,0,1-.19.2l-.21.13-.2.15-.09.07s0,.05,0,.06a.74.74,0,0,0,.06.2.75.75,0,0,1,.07.19.18.18,0,0,0,0,.06.28.28,0,0,1,0,.09.41.41,0,0,1-.13.34l-.3.21a2.78,2.78,0,0,0-.34.26.71.71,0,0,0-.2.47.88.88,0,0,0,.06.21,1.44,1.44,0,0,0,.09.2V55a.22.22,0,0,1-.07.19l-.14.08-.14.07a.11.11,0,0,0-.06.11.88.88,0,0,0,.06.21,1.19,1.19,0,0,1,.07.2V56s0,0,0,0v0a.09.09,0,0,0,0,.05v0s-.05.07-.13.14-.13.1-.13.12v.81a.17.17,0,0,1-.15.15l-.24,0-.25,0a.2.2,0,0,0-.17.15,1.23,1.23,0,0,1,.27.12l.25.15s0,0,0,.05a.35.35,0,0,0,0,.06s0,.06,0,.1,0,.05,0,.05a.79.79,0,0,1-.18.2l-.21.21a0,0,0,0,0,0,0v0l0,.07s.1.09.2.2a2,2,0,0,0,.19.2V60.9l.11.21a2.92,2.92,0,0,0,.18.3.11.11,0,0,0,.05.09l.08.06.2.06.21.07a.63.63,0,0,1,.08.25,1.58,1.58,0,0,1,0,.29,1.94,1.94,0,0,1,.29,0l.44,0,.45,0,.29,0,.16,0,.16,0,.43-.1.92-.17.24,0a1.09,1.09,0,0,0,.23-.06,1.57,1.57,0,0,1,.26-.14.87.87,0,0,0,.26-.14v-.13s0-.08.16-.15.15-.11.15-.13l.19-.2.22-.2.06-.14c0-.08,0-.12.07-.12a.57.57,0,0,1,.2-.08.45.45,0,0,0,.21-.07.39.39,0,0,1,.13-.06l.24-.11.24-.12c.07,0,.11-.06.11-.07v-.54a.38.38,0,0,1,.14-.06.58.58,0,0,0,.14-.07s0-.08,0-.15,0-.11,0-.13,0,0,0-.06L49,59a1.1,1.1,0,0,0,.3-.21,1.1,1.1,0,0,1,.3-.21,1.64,1.64,0,0,0,.08-.41.75.75,0,0,1,.1-.34,1.38,1.38,0,0,1,.14-.21,2,2,0,0,0,.14-.2s0-.1,0-.2a.41.41,0,0,1,0-.21l.12-.06a.43.43,0,0,0,.14-.07.58.58,0,0,0,.11-.1.3.3,0,0,0,0-.1.69.69,0,0,0,0-.13.29.29,0,0,1,0-.2h0s0,0,0,0l.11-.08a.66.66,0,0,0,.17-.12L50.8,56l.09-.08a1.14,1.14,0,0,0,.22-.24.86.86,0,0,1,.14-.18.43.43,0,0,1,.2-.11,1.44,1.44,0,0,1,.35,0,.64.64,0,0,0,.1.37.65.65,0,0,1,.1.34.77.77,0,0,1-.19.51.71.71,0,0,0-.18.37v0l0,0,.08.15.05.13v.06a.71.71,0,0,1-.12.45,1.79,1.79,0,0,1-.27.28l-.3.27a1,1,0,0,0-.24.4V59s-.07.08-.21.15a1.13,1.13,0,0,0-.22.15s0,.08,0,.2a.67.67,0,0,1,0,.19s-.08.06-.2.09l-.19,0a.22.22,0,0,0-.15.15.93.93,0,0,0,0,.13.38.38,0,0,1,0,.13,2.5,2.5,0,0,0-.24.26,1.76,1.76,0,0,1-.31.31s0,0-.13.08l-.13.05a.52.52,0,0,0-.12.13l-.15.23a1.77,1.77,0,0,1-.16.22,1.06,1.06,0,0,1-.11.13.38.38,0,0,1-.14.06c-.08,0-.13.05-.14.07a1.29,1.29,0,0,0-.06.2c0,.11-.06.18-.07.21s0,0-.12.07a.44.44,0,0,1-.14,0,1.91,1.91,0,0,0-.36.33,2.42,2.42,0,0,1-.32.32,1.6,1.6,0,0,1-.47.26,3.34,3.34,0,0,1-.76.19.36.36,0,0,0-.13,0l-.13.08H42.06a.88.88,0,0,0-.06-.21l-.07-.2,0,0s0,0,0,0l-.06,0H41A1.24,1.24,0,0,0,41,62.75Z"/><path class="cls-2" d="M52,63.13c-.09,0-.13-.06-.13-.13v-.25a1.5,1.5,0,0,0,0-.29.42.42,0,0,0-.23-.25c-.16-.1-.27-.14-.34-.12s-.13,0-.2-.16-.14-.21-.24-.38a2.78,2.78,0,0,1-.17-.29,1.56,1.56,0,0,1,.06-.18,1.19,1.19,0,0,0,.07-.2v-.13a.49.49,0,0,0-.07-.25.43.43,0,0,1-.06-.24v0a1,1,0,0,1,.2-.14,1,1,0,0,0,.21-.14l-.41-.53a.34.34,0,0,0,.08-.12.39.39,0,0,0,0-.14v-.92a1,1,0,0,0,0-.25.33.33,0,0,1,.08-.26l.13-.08.13-.05a.22.22,0,0,0,.15-.15q-.35-.09-.3-.24a1.75,1.75,0,0,0,.05-.47v-.21c0-.1,0-.15,0-.15s0,0,.08-.11a1.54,1.54,0,0,1,.19-.17l.17-.16.1-.1a.3.3,0,0,0,0-.22.43.43,0,0,1,0-.19.21.21,0,0,1,.11-.14,1.89,1.89,0,0,1,.42-.11l-.54-.28.45-.26a.45.45,0,0,1,.1-.3.87.87,0,0,1,.22-.17l.22-.12a.28.28,0,0,0,.16-.14.43.43,0,0,1,0-.12q0-.09,0-.21l0-.22c0-.06,0-.1,0-.11a1,1,0,0,1,.19-.13l.22-.13.13-.13a.87.87,0,0,1,.05-.13l.08-.15.29-.29a1.84,1.84,0,0,1,.25-.22s0,0,.1,0l.16,0a.47.47,0,0,0,.17,0,.25.25,0,0,0,.11,0,.14.14,0,0,0,.09,0,.18.18,0,0,0,0-.08.74.74,0,0,0-.06-.2.67.67,0,0,1-.07-.21s0,0,0,0,0,0,0,0l.28,0a1.22,1.22,0,0,0,.28-.06s.06,0,.12-.12.11-.13.14-.13l.14,0,.27-.05.31,0,.24,0h.39l.22.08.38.18.38.17a1,1,0,0,0,.23.08s.05,0,.12,0l.21,0,.22,0a.25.25,0,0,1,.12,0l.08.06a.18.18,0,0,1,.05.07v.13a.92.92,0,0,0,.22.14c.11.06.18.11.19.14a.51.51,0,0,1,0,.26.93.93,0,0,0,0,.25s0,0,0,.07l.09.08.32.15c.15.07.22.15.22.24l.28,1.07a1.08,1.08,0,0,1-.21.19s0,.07,0,.15a.44.44,0,0,1,0,.17l.17.07v.06a.25.25,0,0,0,.06.19s.07.11.07.22a.8.8,0,0,1-.12.43,1.23,1.23,0,0,0-.16.43v.66a2.2,2.2,0,0,0-.23.37c-.08.15-.15.3-.22.45a3.56,3.56,0,0,1-.17.34c0,.08-.08.09-.1,0a3.89,3.89,0,0,1,.43-.11l.22,0,.2,0a2.24,2.24,0,0,0,.34-.16c0,.05.1.05.2,0a1.28,1.28,0,0,0,.29-.24,1.85,1.85,0,0,0,.25-.32.35.35,0,0,0,.07-.3.55.55,0,0,1,0-.15c0-.09.07-.18.11-.29a2.09,2.09,0,0,1,.11-.3.65.65,0,0,1,.07-.16,1,1,0,0,1,.53-.49,1.15,1.15,0,0,1,1,.13.19.19,0,0,1,0,.22,1,1,0,0,0,0,.31.39.39,0,0,1,0,.17.53.53,0,0,1-.09.11l-.07.08s0,0,0,.09l-.42.62c.06.1.05.17,0,.22a.47.47,0,0,0-.2.25c0,.13-.07.26-.11.4s-.13.19-.24.16l-.22.27a2,2,0,0,1-.24.25s0-.06-.14,0a1.87,1.87,0,0,0-.42.14,1.66,1.66,0,0,0-.32.22l-.26.21-.69.18c-.09,0-.14,0-.14,0v0H59.2a.73.73,0,0,0-.14.2,4.49,4.49,0,0,1-.23.41l-.23.43-.15.27s0,.07-.06.18,0,.23-.07.35l-.09.36c0,.1,0,.17-.07.18a.78.78,0,0,1-.26.12l-.28.09a1.43,1.43,0,0,0-.28.13.29.29,0,0,0-.13.26.25.25,0,0,1-.06.2.22.22,0,0,0-.07.19v.06l-.84.54a5,5,0,0,1-.65.33,2,2,0,0,1-.63.13,4,4,0,0,1-.78-.08,1,1,0,0,1-.54-.12,1.6,1.6,0,0,0-.52-.16l-.21,0-.36-.09-.35-.08ZM52,60a.29.29,0,0,0,.21.25,1.59,1.59,0,0,1,.33.09.56.56,0,0,1,.26.35c.07.2.12.34.15.44s0,.1,0,.21a.54.54,0,0,0,0,.2s0,0,.12.07a.38.38,0,0,1,.14.06.84.84,0,0,1,.12.13l.22.21a2.08,2.08,0,0,1,.21.21l.12.11a.16.16,0,0,0,.09,0h.15a1.62,1.62,0,0,0,.41,0l.44-.11.19-.07.27-.08.25-.08c.07,0,.11,0,.11,0l.11-.16a1.74,1.74,0,0,1,.2-.3l.21-.3.11-.19.2-.2a1.38,1.38,0,0,0,.21-.2,1.23,1.23,0,0,0,.06-.17c0-.1.06-.21.1-.33s.07-.22.11-.32a.57.57,0,0,0,0-.17.44.44,0,0,0,.09-.13.57.57,0,0,0,.07-.13s0,0-.06-.08a.16.16,0,0,0-.1,0,1.45,1.45,0,0,0-.39,0,1.82,1.82,0,0,0-.41,0s0-.08,0-.15-.07-.12-.1-.13l-.19,0-.38-.07-.37-.06c-.11,0-.17,0-.18-.06a.5.5,0,0,0-.2-.13c-.09,0-.11-.06-.06-.1a1,1,0,0,1-.48-.19c-.09-.07-.13-.23-.13-.48l-.72-.38a1.6,1.6,0,0,0-.06-.51c0-.1-.13-.28-.26-.52-.17.26-.33.49-.46.7a1.17,1.17,0,0,0-.19.65v.06a.6.6,0,0,1,0,.23c0,.13,0,.21,0,.22v.07c0,.08,0,.13,0,.15l-.12,0h-.14a.17.17,0,0,0-.12.1.21.21,0,0,1,.1,0l.17.12a.61.61,0,0,1,.17.15.22.22,0,0,1,.08.15v.06a.32.32,0,0,1-.07.13.4.4,0,0,0-.06.13.37.37,0,0,0,.06.15.32.32,0,0,1,.07.13.14.14,0,0,1,0,.09.38.38,0,0,0,0,.1.59.59,0,0,0,0,.13Zm4-2.47a.86.86,0,0,0,.39.22,1.48,1.48,0,0,0,.34,0H57c.07,0,.1,0,.1,0h.25a2.17,2.17,0,0,0,.36,0l.29-.05c.08,0,.1,0,.07-.08l-.26-.4s0,0,0-.07a.21.21,0,0,1,.08-.06l.13-.07a.62.62,0,0,0,.15-.06V57a.62.62,0,0,0-.07-.31.74.74,0,0,1-.08-.34v-.23a.71.71,0,0,1,.2-.1.38.38,0,0,1,.22,0l-.16-.19a.53.53,0,0,1-.11-.22s0-.09.06-.19a.68.68,0,0,0,.08-.19l.47-.73a1.53,1.53,0,0,1-.76-1,1.38,1.38,0,0,0-.16-.21,1.06,1.06,0,0,1-.16-.2,1,1,0,0,0-.21-.23,2.68,2.68,0,0,0-.37-.26,4.1,4.1,0,0,0-.4-.23.79.79,0,0,0-.3-.09h-.22l-.06.06,0,0,0,0-.12,0-.21,0-.22,0-.12,0a.19.19,0,0,0-.14.25.42.42,0,0,1,0,.29.48.48,0,0,1-.19.21l-.27.15a.92.92,0,0,0-.25.17.3.3,0,0,0-.11.26v.09l0,0a.67.67,0,0,0,.07.21.74.74,0,0,1,.06.2,1.1,1.1,0,0,1-.2.2.91.91,0,0,0-.21.21v.1l.19.07a.45.45,0,0,1,0,.2c0,.11,0,.18,0,.2s0,0,.07.07l.06.06v.05l0,0v0a.47.47,0,0,1-.08.28.45.45,0,0,0-.08.26c0,.14,0,.23.13.25a1.34,1.34,0,0,1,.29.15,3.21,3.21,0,0,1,.27.25l.27.29s0,0,.07.09l.23.14.23.13.1.09Z"/><path class="cls-2" d="M73.21,61.27a.73.73,0,0,0,.07-.35.8.8,0,0,0-.08-.36.72.72,0,0,1-.09-.37v-.08s0,0,0,0l0,0,0,0,.06-.07s0-.09,0-.2,0-.22.06-.35,0-.25,0-.37,0-.18,0-.21l.14-.21.14-.18s0-.12,0-.26a1.5,1.5,0,0,1,0-.27s0,0,.07-.08a.15.15,0,0,0,.06-.07.4.4,0,0,0-.06-.13l-.07-.13,0,0v-.07l0,0a.55.55,0,0,1,.24-.13.2.2,0,0,0,.15-.21.45.45,0,0,0-.07-.25.5.5,0,0,1-.08-.27.54.54,0,0,1,0-.11.51.51,0,0,0,0-.1c0-.09,0-.21.08-.39l0-.27a1,1,0,0,1,.27-.14l.27-.12.08-.07a.08.08,0,0,0,0-.08,2.09,2.09,0,0,1-.1-.23,1.7,1.7,0,0,1-.12-.34c0-.12-.07-.24-.1-.36a1.16,1.16,0,0,1,0-.27,2.58,2.58,0,0,1,0-.42,2.58,2.58,0,0,0,0-.42.08.08,0,0,0,0-.07L74.32,53,74.13,53l-.22-.07h-.13L73.5,53a1.21,1.21,0,0,0-.26.14s0,0,0,.05a.11.11,0,0,0,0,.08V54a.16.16,0,0,1-.08.15l-.2.07-.2,0h-.12v.13s0,.1.07.21a.74.74,0,0,1,.06.2v.13c-.09.11-.23.25-.41.43a1.45,1.45,0,0,0-.39.51.32.32,0,0,0,0,.2.53.53,0,0,1,0,.19l-.2.2-.22.2v.11c0,.06,0,.11,0,.17a1,1,0,0,1,0,.16.13.13,0,0,1,0,.1s-.07.06-.17.1a.49.49,0,0,1-.22,0,.73.73,0,0,1,.16.4.16.16,0,0,1-.07.15.52.52,0,0,1-.15.07.53.53,0,0,0-.15.05.11.11,0,0,0-.07.12.36.36,0,0,0,.08.15.32.32,0,0,1,.07.13v1l-.27.27a.49.49,0,0,0-.14.33v.08a.79.79,0,0,1,.08.13.87.87,0,0,1,.05.13,1.26,1.26,0,0,1-.16.4.5.5,0,0,1-.38.27,1.2,1.2,0,0,1,0,.4,1.09,1.09,0,0,1,0,.39s0,.07-.12.14a.43.43,0,0,0-.14.14.59.59,0,0,0,0,.28,1.4,1.4,0,0,1,0,.35,1,1,0,0,1-.12.31.31.31,0,0,1-.28.13h-.65l-.27,0L68.15,63V61.69l.19-.14.2-.14,0,0a0,0,0,0,0,0,0,0,0,0,0,1,0,0v0l-.06-.12a.41.41,0,0,0-.07-.13v-.15a1.2,1.2,0,0,1,.1-.28l.15-.41.15-.41.1-.25a3,3,0,0,0,.14-1,3.9,3.9,0,0,1,.09-1,.57.57,0,0,1,.07-.13.4.4,0,0,0,.06-.13.9.9,0,0,0-.13-.27,1.78,1.78,0,0,1-.13-.26c0-.06,0-.16,0-.29V56.1c0-.14,0-.28,0-.4s0-.19,0-.2,0-.18.1-.33a.52.52,0,0,1,.16-.27,1.85,1.85,0,0,1-.29-.25.85.85,0,0,1-.23-.29.46.46,0,0,1,0-.16q0-.14-.06-.3c0-.11,0-.2-.07-.3a1.16,1.16,0,0,1,0-.16,2,2,0,0,0-.14-.2,1.38,1.38,0,0,1-.14-.21s0-.05,0-.12a.09.09,0,0,0,0-.07l.39-.15-.22-.17a1.48,1.48,0,0,0-.25-.15l-.07,0H68l-.33.19a2.23,2.23,0,0,0-.34.22.42.42,0,0,0-.2.36.29.29,0,0,1-.22.3h-.67a.12.12,0,0,0-.08,0,.14.14,0,0,0,0,.09.74.74,0,0,0,.06.2,1,1,0,0,0,.07.19v.15l-.2.19-.21.19a1.19,1.19,0,0,0-.06.21c0,.1-.06.17-.07.2a.25.25,0,0,1-.29.16.47.47,0,0,0-.38.1s.07.13.14.26a1.49,1.49,0,0,0,.14.27v.13a2,2,0,0,0-.06.24l-.09.34c0,.11-.07.27-.13.47,0,0,0,0-.07.07a.21.21,0,0,0-.06.08,1.77,1.77,0,0,0,0,.19.54.54,0,0,1,0,.2.24.24,0,0,1-.13.11l-.19.09-.16.13a.45.45,0,0,0-.06.27v.06l.07.15a.4.4,0,0,1,.06.13v0a0,0,0,0,0,0,0s0,0,0,0,0,0,0,0v0a1.67,1.67,0,0,1-.2.2l-.19.2s0,.06,0,.13a.44.44,0,0,0,.09.13v.13a2,2,0,0,1-.14.2.59.59,0,0,0-.12.21l-.14.21a.68.68,0,0,0-.12.22,1.56,1.56,0,0,0,.06.18c0,.1.06.17,0,.18a3.06,3.06,0,0,0-.07.34c0,.17,0,.28-.06.32a1.88,1.88,0,0,1,0,.19c0,.1,0,.22,0,.34a3.07,3.07,0,0,1,0,.34c0,.11,0,.17,0,.18a2.5,2.5,0,0,1-.19.27c-.12.15-.18.24-.2.27a.93.93,0,0,0,0,.2c0,.11,0,.18,0,.21a.21.21,0,0,1-.06.08.14.14,0,0,1-.09,0l-1.15.1a.72.72,0,0,1-.17-.1.88.88,0,0,0-.24-.15.24.24,0,0,0-.06-.09L61.3,63v-.13l.21-.22.2-.21a1.74,1.74,0,0,0,0-.18,2.09,2.09,0,0,0,0-.34c0-.11,0-.22,0-.32a1.29,1.29,0,0,1,0-.19,1.47,1.47,0,0,0,.24-.18L62,61a.36.36,0,0,0,.09-.12.68.68,0,0,0,0-.36c0-.1,0-.2-.07-.29A1.41,1.41,0,0,1,62,60a.59.59,0,0,1,.11-.33.94.94,0,0,0,.08-.15l0-.13a.4.4,0,0,0-.06-.13.61.61,0,0,0-.07-.13V59a.21.21,0,0,1,.06-.16.56.56,0,0,1,.15-.1l.15-.09a.19.19,0,0,0,.07-.16,1.1,1.1,0,0,0,0-.27l-.11-.27.19,0a.54.54,0,0,0,.2-.09v0s0,0,0,0,0,0,0,0a.86.86,0,0,0-.12-.38,2.05,2.05,0,0,1-.16-.37v-.13a1.31,1.31,0,0,1,.14-.12c.08-.06.12-.11.12-.14a.75.75,0,0,1,0-.16c0-.09,0-.19,0-.3s0-.21,0-.3l0-.16.06-.2a.53.53,0,0,1,.09-.21s0,0,.12-.11l.14-.14v-.67a1.41,1.41,0,0,1,.17-.22l.2-.23a.45.45,0,0,0,0-.18c0-.11,0-.17,0-.2s0-.29,0-.38,0-.18,0-.26a.7.7,0,0,0,0-.14.84.84,0,0,1,0-.12c0-.08,0-.12,0-.13s0-.08.13-.14l.13-.12.12-.29a1.8,1.8,0,0,0,.09-.27.71.71,0,0,0,.29,0,2.58,2.58,0,0,1,.45,0h.13s0,0,.06.09l.1.18.1.18c0,.06,0,.08.06.07s0,0,.08-.07.06-.06.08-.06l.22-.12.25-.12s.07-.06.13-.13.1-.12.13-.12a.91.91,0,0,1,.29-.1l.23,0,.21,0a.8.8,0,0,0,.23-.13h1.6l.82.79v.15s0,.08,0,.14,0,.1,0,.12a3.8,3.8,0,0,1,.33.49.39.39,0,0,1,0,.27.43.43,0,0,0,0,.25,4.5,4.5,0,0,0,.22.44,1.62,1.62,0,0,1,.17.48c0,.11,0,.23,0,.35a3.55,3.55,0,0,0,.06.4s.1-.06.16-.18l.2-.42.17-.45a1.14,1.14,0,0,0,.07-.3,1.08,1.08,0,0,1,.09-.26,1.33,1.33,0,0,0,.09-.24v-.12s0-.06.16-.12l.21-.12a.2.2,0,0,0,0-.11v-.18a1.09,1.09,0,0,1,0-.18.39.39,0,0,1,0-.11l.42-.34a1.54,1.54,0,0,0,.32-.37.89.89,0,0,1,.43-.24,2.41,2.41,0,0,1,.52-.14.74.74,0,0,1,.27,0l.4,0,.41,0h.28l.12.07.21.08.21.1.11.07s0,.1.08.26a1.7,1.7,0,0,0,.1.28l.12.1.2.16.2.17.11.11a.61.61,0,0,1,0,.19c0,.1,0,.21,0,.33s0,.24,0,.34v.21s0,.12,0,.27,0,.23,0,.26v.13a1.7,1.7,0,0,0-.06.18,1,1,0,0,0,0,.21,1.14,1.14,0,0,0-.07.27c0,.14,0,.23-.06.26a.37.37,0,0,0-.06.15c0,.09,0,.18-.07.28s-.06.19-.08.28,0,.14,0,.15a.32.32,0,0,0,0,.2.68.68,0,0,1,0,.21c0,.13-.13.22-.31.29a.71.71,0,0,0-.36.24l.2.2.21.19v.13L75,58l0,0a.25.25,0,0,0,.06.2l.15.12a.45.45,0,0,1,.15.18.79.79,0,0,1,.07.4c0,.07,0,.17,0,.3s0,.2,0,.21a.57.57,0,0,1-.07.13.37.37,0,0,0-.06.15v.54l-.12.13-.14.12s0,0,0,0v.08s0,0,0,0a2.31,2.31,0,0,1,.07.47c0,.18,0,.34,0,.5v0a.38.38,0,0,0-.05.17A.18.18,0,0,1,75,62h.28l.22,0,.11,0,.11,0,.23-.1V61.8a.3.3,0,0,0,0-.13.79.79,0,0,0-.08-.13v-.06a.2.2,0,0,1,.13-.2l.31-.09a1.91,1.91,0,0,0,.36-.17.81.81,0,0,0,.29-.42.31.31,0,0,1-.09-.12.33.33,0,0,1,0-.14s0,0,0-.06l.09-.07.13-.07.13-.06a.4.4,0,0,0,.17-.23,2.84,2.84,0,0,0,.08-.34c0-.13,0-.26.08-.39a1.25,1.25,0,0,1,.21-.39l.14-.11c.08-.07.13-.11.14-.14s0-.12,0-.27a.89.89,0,0,1,0-.27.15.15,0,0,1,0-.06l0,0a.05.05,0,0,0,0,0l.14-.06c.08,0,.12,0,.12-.07l.13-.15.24-.27c.09-.1.16-.2.24-.28l.13-.17s0-.06.12-.13l.14-.13v-.13a.74.74,0,0,0-.06-.2c0-.11-.06-.18-.07-.21v-.13l.27-.13a1.48,1.48,0,0,1,.27-.12.16.16,0,0,0,0-.12.11.11,0,0,1,0-.1h.06a.8.8,0,0,1,.5.15,2,2,0,0,1,.37.39v0a0,0,0,0,0,0,0s0,0,0,0,0,0,0,0v0s0,.05-.08.13a.32.32,0,0,0,0,.15,2.73,2.73,0,0,0-.08.32,1.57,1.57,0,0,0,0,.34v.39a.31.31,0,0,1-.16.18l-.22.11a.94.94,0,0,0-.22.12.32.32,0,0,0-.1.25.61.61,0,0,0,.08.3.61.61,0,0,1,.08.3v.06a1.09,1.09,0,0,1-.3.37,4.22,4.22,0,0,1-.36.27,2.37,2.37,0,0,0-.3.23.39.39,0,0,0-.13.27v.06a1.59,1.59,0,0,1,.08.21,1.32,1.32,0,0,1,0,.2.11.11,0,0,1-.1.12h-.24a1.06,1.06,0,0,0-.31,0,.56.56,0,0,0-.28.24v.13a2.64,2.64,0,0,0,0,.33c0,.16.07.27.08.33a1.06,1.06,0,0,0-.54.13.74.74,0,0,0-.39.41s0,.09,0,.19a.68.68,0,0,1,.08.19.14.14,0,0,1,0,.09l-.08.06a1.41,1.41,0,0,1-.27.06.6.6,0,0,0-.27.07l-.14.12-.14.14v.13a.47.47,0,0,1-.28.19,1.52,1.52,0,0,1-.45.07l-.5,0h-.86a1,1,0,0,1-.47-.13l-.15-.14c-.07-.07-.11-.11-.11-.14a.54.54,0,0,1,0-.2c0-.11,0-.17,0-.19a.12.12,0,0,0-.08-.1l-.11,0-.12,0a.12.12,0,0,1-.08-.11.93.93,0,0,1,0-.25,1,1,0,0,0,0-.26s0,0-.06-.08-.07-.06-.07-.07v-.07A.58.58,0,0,1,73.21,61.27Z"/><path class="cls-2" d="M11.27,81.62c0-.05,0-.07,0-.05s0,0,0,.07h0s0,0,0,0Z"/><path class="cls-2" d="M21.62,87.76l.23-.16.13-.08a.58.58,0,0,1,.16-.18c.15-.09.22-.42.33-.51a2.87,2.87,0,0,1,.36-.23l.06-.07.23-.21.42-.19.11-.12a.17.17,0,0,1,.06-.14l.16-.12a.49.49,0,0,0,.15-.19.74.74,0,0,0,.07-.37v-.14l0-.1c0-.06,0-.12,0-.18l0-.19a.27.27,0,0,1,0-.1V84.2a3.1,3.1,0,0,1,0-.42c0-.15,0-.29,0-.42s0-.23,0-.28h0c0-.12,0-.26,0-.43a.57.57,0,0,1,.17-.41,1.06,1.06,0,0,1-.05-.18q0-.11-.06-.24a2.17,2.17,0,0,0-.07-.24.57.57,0,0,0-.06-.15l-.06-.08-.07-.07a.3.3,0,0,1,0-.11.62.62,0,0,1,0-.12h-.56a2,2,0,0,0-.36,0l-.35.07c-.12,0-.3.08-.53.13h-.16q.2-.32.09-.27a3.43,3.43,0,0,0-.34.17q-.2,0-.21,0s0,0-.08.17a1.13,1.13,0,0,1-.29-.06l-.43-.12-.43-.09a1.53,1.53,0,0,0-.3,0l-.21.09-.2.08h-.13l-.16.08-.14.06-.13,0-.22,0-.24-.05-.12,0h-.14l-.13.14-.21,0-.3,0-.3,0-.2,0-.21,1H17s0,0,0,0a.8.8,0,0,1,0,.15l0,.16s0,.06,0,.05l.25.12s.05,0,.05,0l0,0,.14,0,.12,0,.26,0,.28,0,.21,0h.14l.14-.1.27-.16.26-.15.16-.11.13.41.16-.06.27-.1A.56.56,0,0,1,20,83l.19,0,.19.08a1,1,0,0,0,.28,0c0-.22,0-.34.08-.38a1.12,1.12,0,0,1,.41,0h.14s0,0,0,0a.08.08,0,0,0,0,0,.37.37,0,0,0,.17,0l.23,0,.09,0,.08,0a1.1,1.1,0,0,0,.24,0,.39.39,0,0,1,.35.17.58.58,0,0,1,.13.38,1.18,1.18,0,0,1-.07.36c0,.14-.09.3-.15.46s0,.56-.07.7a2.87,2.87,0,0,1-.17.3s-.06,0-.13.07l-.16.07a4.28,4.28,0,0,0-.56.5l-.55.57c-.19.19-.51.12-.71.3a4,4,0,0,1-.61.43l-.2.07a.81.81,0,0,1-.22.06l-.11,0-.19.12-.2.11-.1,0-.47.09-.2.08a.64.64,0,0,1-.22.06L17,88a2.93,2.93,0,0,1-.63-.06l-.49-.14-.49-.2c-.17-.08-.36-.16-.58-.24a1.29,1.29,0,0,1-.44-.28,3.15,3.15,0,0,1-.75-1,1.28,1.28,0,0,1-.13-.49,14.93,14.93,0,0,1-.38-2A13.76,13.76,0,0,1,13,81.8c0-.14,0-.37,0-.67s0-.62,0-.95,0-.66,0-1a3.26,3.26,0,0,1,0-.65c.1-.54.2-1,.31-1.53a12.17,12.17,0,0,1,.33-1.27,3.68,3.68,0,0,1,.12-.39c.06-.16.12-.33.19-.49s.12-.32.18-.46.1-.25.13-.31a.25.25,0,0,1,.14-.17.6.6,0,0,1,.19-.06l.21-.05a.46.46,0,0,0,.19-.14l.06-.11.08-.18c0-.06,0-.12.07-.17l.06-.1a1.62,1.62,0,0,1,.31-.24c.18-.12.39-.25.62-.38s.48-.27.73-.39a3.69,3.69,0,0,1,.63-.27,3.2,3.2,0,0,1,1-.27,3.71,3.71,0,0,1,.74,0l.61,0a1.34,1.34,0,0,0,.56-.08s0-.09,0-.23,0-.22,0-.23,0,0,.09.06l.16.14c0,.06.11.11.15.17s.07.09.09.11l.27-.29s-.05,0-.07-.13,0-.19-.06-.3,0-.21-.06-.3a.84.84,0,0,0-.06-.17.21.21,0,0,0-.16,0,.22.22,0,0,1-.15,0l-.08-.19c0-.13-.09-.19-.12-.19l-.6,0-.62,0q0-.11-.18-.09a1.45,1.45,0,0,0-.33.06l-.39.1a1.22,1.22,0,0,1-.34.06l-1,.19-.81.21a3,3,0,0,0-.58.25.48.48,0,0,0-.26.31s0,.06-.07.14-.06.13-.09.13-.07,0-.13,0a.35.35,0,0,0-.14-.06v-.06a1.13,1.13,0,0,1-.4.19l-.41.12a1.19,1.19,0,0,0-.36.17.75.75,0,0,0-.26.37.31.31,0,0,0,0,.14.31.31,0,0,1,0,.14,1,1,0,0,0-.1.19l-.12.27-.13.25-.08.14a.75.75,0,0,0-.12.21l-.21.36-.21.36c-.07.1-.1.17-.12.2a.67.67,0,0,0-.08.22l-.07.22a.45.45,0,0,1,0,.09l-.1.18a1.42,1.42,0,0,0-.08.18.35.35,0,0,0,0,.1s0,.06,0,.14,0,.13,0,.15a.71.71,0,0,1-.15.07c-.08,0-.13,0-.14.07a1,1,0,0,0-.07.32c0,.21-.07.46-.11.76s-.08.63-.13,1-.11.69-.16,1a2.19,2.19,0,0,0,0,.79.55.55,0,0,1,.05.25.71.71,0,0,0,0,.2c0,.11,0,.22-.05.34s0,.24,0,.35,0,.17,0,.2l.27.27a.78.78,0,0,0-.24.3s.08,0,.1,0a.29.29,0,0,1,0,.13.2.2,0,0,1,0,.11s0,0,0,0-.11,0-.13,0l0-.11a1.13,1.13,0,0,0-.1.42,4.25,4.25,0,0,0,.07,1.05c.06.37.14.74.22,1.1a4.49,4.49,0,0,1,.13.91,2.87,2.87,0,0,0,.18,1,4.78,4.78,0,0,0,.48,1,7,7,0,0,0,.67.85,5.05,5.05,0,0,0,.76.66.64.64,0,0,0,.13.15.7.7,0,0,0,.16.14,2,2,0,0,0,.62.24,3.57,3.57,0,0,1,.66.18l.16,0a.41.41,0,0,1,.17,0h.71a.37.37,0,0,1,.14,0l.15.08a4.76,4.76,0,0,1,.5.07c.07,0,.1,0,.09,0H17l1.2-.17.31-.17a.71.71,0,0,1,.31-.08.31.31,0,0,1,.15.07.56.56,0,0,0,.14.07.32.32,0,0,0,.31-.18.64.64,0,0,1,.25-.24.19.19,0,0,1,.15,0H20a.55.55,0,0,0,.09-.14l.14-.25c0-.09.21.08.25,0a.4.4,0,0,1,.09-.14h.14a1.37,1.37,0,0,0,.62-.37A.62.62,0,0,1,21.62,87.76Zm1.75-6.44a.08.08,0,0,1,.08.05.59.59,0,0,1,0,.14.32.32,0,0,1,0,.14.09.09,0,0,1-.09.07c-.06,0-.09-.07-.08-.2S23.31,81.32,23.37,81.32Zm-5.71,1.55c-.07,0-.1-.05-.1-.15s0-.14.1-.14.11,0,.11.14S17.74,82.87,17.66,82.87Zm1.28,0c-.08,0-.12,0-.12-.14s0-.13.12-.13.09,0,.09.13S19,82.91,18.94,82.91ZM14.52,71.73q.12,0,.12.15c0,.09,0,.14-.12.14s-.1,0-.1-.14S14.46,71.73,14.52,71.73ZM12.64,78c-.06,0-.1,0-.1-.13s0-.14.1-.14.1,0,.1.12S12.71,78,12.64,78Z"/><path class="cls-2" d="M26,88.35a.37.37,0,0,0,.07-.1.72.72,0,0,1,.07-.11V88a.63.63,0,0,1-.08-.18A.85.85,0,0,1,26,87.6a1.24,1.24,0,0,1,0-.36c0-.19.05-.39.08-.61s.05-.41.08-.6,0-.31,0-.36a1,1,0,0,0,0-.14,1.64,1.64,0,0,1,0-.25,2.51,2.51,0,0,1,0-.27l0-.22v-1.9s0-.13,0-.26,0-.28.05-.44,0-.31,0-.45a2.52,2.52,0,0,0,0-.29s0-.08,0-.2a2.38,2.38,0,0,0,0-.39c0-.14,0-.28,0-.4s0-.19,0-.22a.47.47,0,0,0-.19-.27c-.11-.07-.16-.12-.16-.15v-.94q0-.09,0-.45c0-.23,0-.49,0-.76s0-.54-.06-.78,0-.4-.05-.46v-.19c.06-.54.12-1.13.18-1.78s.11-1.25.15-1.83l0-.13-.06-.25c0-.09,0-.17-.05-.25a.25.25,0,0,1,0-.13.91.91,0,0,0,.09-.31,1.5,1.5,0,0,0,0-.3l0-.27a.51.51,0,0,1,0-.25c0-.11,0-.16.05-.16l.26,0c.08,0,.12,0,.14,0a.11.11,0,0,0,0-.05s0,0,0,0l.1,0h.15a.64.64,0,0,1,.16,0l.15.05.16,0h.18a.59.59,0,0,0,.23,0h.19l.14,0,.16,0,.26-.06.26,0a.39.39,0,0,0,.15,0h.48l.37,0a1,1,0,0,0,.31,0h.16l.18.1c.1,0,.15.07.17.06s.06,0,.14,0l.27-.06.26-.06.14,0,.25.14.19.08.1,0a.73.73,0,0,0,.28-.06l.16-.1a.23.23,0,0,1,.14,0,.8.8,0,0,1,.26.11,1.3,1.3,0,0,0,.32.14l.33.09.2,0,.33.08.33.1a.69.69,0,0,1,.19.07l.31.16a1.07,1.07,0,0,1,.22.15l.17.15.12.17c.08.1.12.16.15.17s.27.21.44.35a2.77,2.77,0,0,1,.43.52,3.51,3.51,0,0,1,.33.64,2,2,0,0,1,.14.75v.1a1,1,0,0,0,0,.17.67.67,0,0,1,.06.17l-.13.46-.13.26a2,2,0,0,0-.12.26.81.81,0,0,0,0,.21.51.51,0,0,0,0,.14.19.19,0,0,1,0,.07v.56a.29.29,0,0,1-.09.1l-.2.18-.19.19C36,77,36,77,36,77a.41.41,0,0,0,0,.21,1.25,1.25,0,0,1,.06.21,1.72,1.72,0,0,1-.24.29l-.31.36c-.11.12-.21.25-.31.38a.8.8,0,0,0-.15.37l-.47.21a3.19,3.19,0,0,0-.46.23s-.07,0-.15,0-.15-.08-.18-.07-.12.25-.15.34a2.6,2.6,0,0,1-.13.24c0,.07-.08.12-.11.13a.85.85,0,0,1-.28.07H33l-.15,0a.66.66,0,0,0-.3,0s0,0-.12.08l-.28.16-.39.23s0,0-.1.07l-.21.11a2.22,2.22,0,0,1-.31.13.59.59,0,0,0,.15.28c.09.11.2.22.31.33l.35.32.29.28a.76.76,0,0,1,.13.2,2.83,2.83,0,0,1,.11.31c0,.11.07.21.1.31a.91.91,0,0,0,.09.23,6.73,6.73,0,0,0,.68,1.13,4,4,0,0,0,.64.69,1.76,1.76,0,0,1,.13.22c.06.13.13.26.19.41s.13.28.2.4a.63.63,0,0,0,.13.2,3.35,3.35,0,0,0,.36.23,3.35,3.35,0,0,1,.36.23l.15.14.27.32c.09.12.19.22.28.32l.15.14a.75.75,0,0,0,.34.09.88.88,0,0,1,.29,0,.34.34,0,0,1,.22.13.77.77,0,0,1,.08.41,1.48,1.48,0,0,1,0,.21c0,.08,0,.13,0,.16a1.55,1.55,0,0,1-.16.37.27.27,0,0,1-.13.1h-.1s-.06,0-.07.13.07,0,.06.06l-.07.07-.11.1a.17.17,0,0,0-.06.11,1.25,1.25,0,0,1-.57,0c-.12-.05-.23-.23-.32-.52l-.13.34a1.52,1.52,0,0,0-.42-.27,4.17,4.17,0,0,1-.47-.28l-.08-.1-.08-.09-.13-.07c-.08,0-.13-.08-.14-.11a.11.11,0,0,1,0-.09.51.51,0,0,0,0-.1,1.43,1.43,0,0,0-.45-.67,1.38,1.38,0,0,1-.57-.51,6.65,6.65,0,0,1-.43-.73,4.88,4.88,0,0,1-.33-.45L32,85.26s0,0-.06-.13l-.1-.31c0-.11-.07-.22-.1-.31a1.16,1.16,0,0,0-.09-.19,1.72,1.72,0,0,1-.34-.36,2.51,2.51,0,0,1-.3-.46,5.51,5.51,0,0,1-.3-.79,1.5,1.5,0,0,0-.34-.63s-.08,0-.16,0L30,81.75l-.29-.32-.19-.21-.25-.1L28.75,81l-.53-.21-.32-.13a.94.94,0,0,0-.12.29,1,1,0,0,0,0,.26v.14s0,0,0,0,0,.05.06.09.07.07.07.09,0,.13,0,.28,0,.25,0,.27a2.66,2.66,0,0,1,0,.44c0,.27,0,.57,0,.89s0,.61,0,.88,0,.41,0,.42v.21a1,1,0,0,0-.07.18.36.36,0,0,1-.09.18s0,0,.05.11,0,.15.06.24,0,.17.05.25,0,.12,0,.13v.17a1.66,1.66,0,0,0-.09.42l0,.23a1.11,1.11,0,0,1-.07.22,3.87,3.87,0,0,1-.18.36c.06-.06.12,0,.17.08a.89.89,0,0,1,0,.52l-.13.2-.16.2s0,0,0,.06a.47.47,0,0,0,.1.1.38.38,0,0,1,.09.09s0,0,0,0l.17.09a.33.33,0,0,1,.14.09V89s0,0,0,0a.47.47,0,0,1-.09.28,1,1,0,0,1-.25.21,1.11,1.11,0,0,1-.29.14.64.64,0,0,1-.24.06l.07,0,.07,0-.24,0-.31,0-.29,0h-.15a.12.12,0,0,1-.09-.06.27.27,0,0,1-.05-.13l-.06-.21c0-.1-.05-.21-.08-.32s-.06-.23-.09-.33A.8.8,0,0,1,26,88.35Zm.31-17.25c-.06,0-.1.08-.1.18s0,.16.1.15.12-.06.12-.17S26.43,71.1,26.35,71.1Zm.72.5s0,0,0-.06l-.12,0a.2.2,0,0,0-.11,0s0,0,0,.07a.12.12,0,0,0,.14.08A.16.16,0,0,0,27.07,71.6ZM27.4,84c-.09,0-.14,0-.14.16s0,.16.14.16.09-.07.09-.18S27.46,84,27.4,84Zm-.1-12.69a.38.38,0,0,0,.16.35l.32.21.06,0h0s0,0,0,0a2.9,2.9,0,0,0-.24-.38A.4.4,0,0,0,27.3,71.35Zm.29,4.7c-.06,0-.1.06-.1.19s0,.19.1.19a.09.09,0,0,0,.09-.07.31.31,0,0,0,0-.13.28.28,0,0,0,0-.13A.11.11,0,0,0,27.59,76.05Zm1,3.1a.52.52,0,0,0,.27,0,.67.67,0,0,1,.25,0,.45.45,0,0,1,.21.12,1,1,0,0,1,.14.33l.15-.18c.05-.07.12-.14.18-.21l.19-.16a.78.78,0,0,1,.16-.08.42.42,0,0,1,.14.08l.15.09a.44.44,0,0,1,.15,0h.12s0,.07.08.18.05.17.08.18l0,0,0-.08H31a.43.43,0,0,1,.1-.35,1.15,1.15,0,0,1,.28-.19l.35-.13a1.35,1.35,0,0,0,.32-.15.21.21,0,0,1,.1-.06l.18-.08.16-.07.1,0,.19-.1.24-.12.2-.13.11-.08a.53.53,0,0,0,.13-.19c.07-.11.11-.18.14-.19a1,1,0,0,1,.22-.11l.22-.1s0,0,.07-.1a.45.45,0,0,1,.07-.09.81.81,0,0,0,0-.16l0-.3a1.36,1.36,0,0,1,0-.29.43.43,0,0,1,0-.15.36.36,0,0,1,.14-.13l.15-.08a.91.91,0,0,0,.19-.3,3.84,3.84,0,0,0,.11-.4l.06-.43a2.23,2.23,0,0,1,.09-.39l-.17-.5a.81.81,0,0,0-.14-.39,2.59,2.59,0,0,0-.32-.42,2.38,2.38,0,0,0-.38-.34,1.28,1.28,0,0,0-.31-.19l-.19-.07-.33-.13-.32-.12a.65.65,0,0,0-.2-.06l-.13-.09-.12-.06a1.21,1.21,0,0,0-.31,0L31.54,72,31,71.94l-.36,0a3.83,3.83,0,0,0-.4,0l-.65,0c-.23,0-.44,0-.65,0h-.41a1,1,0,0,0-.32.45,2.2,2.2,0,0,0-.1.55,2,2,0,0,0,0,.49c0,.14,0,.24,0,.27v.11a1.62,1.62,0,0,0,0,.19,1.43,1.43,0,0,1,.05.28,2.4,2.4,0,0,0-.15.2,1.16,1.16,0,0,1-.16.2.22.22,0,0,1,.09.08s.05.06.05.08,0,0,0,0v0s0,0,0,0,0,0,0,0a0,0,0,0,0,0,0s0,0,0,.06l-.14.18a.37.37,0,0,0-.11.18v.9c0,.09,0,.19,0,.31s0,.22,0,.3v.16a.4.4,0,0,0,0,.13c0,.07,0,.14,0,.22s0,.16.06.23a.64.64,0,0,1,0,.15V79a.26.26,0,0,1,.18,0l.19.12a.4.4,0,0,0,.17.09C28.48,79.24,28.52,79.22,28.56,79.15ZM28.21,71c-.09,0-.13,0-.13.16s0,.16.13.16.1-.07.1-.18S28.28,71,28.21,71Zm6,.24c-.09,0-.14.06-.14.17s0,.16.14.16.09-.07.09-.18S34.26,71.24,34.2,71.25ZM36.1,88c-.07,0-.1,0-.1.14s0,.14.1.14.11,0,.11-.14S36.17,88,36.1,88Zm.62.15s0-.08-.1-.13-.12-.06-.1,0a1.3,1.3,0,0,0,.1.15C36.66,88.15,36.69,88.15,36.72,88.1Z"/><path class="cls-2" d="M50.79,89.17a3.61,3.61,0,0,0-.09-.74,6.83,6.83,0,0,1-.14-.75v-.59a6.25,6.25,0,0,0,0-.64.8.8,0,0,0-.1-.38c-.06-.06-.13,0-.22.21,0,0,0-.14-.08-.31L50,85.44c-.06-.19-.11-.37-.15-.53l-.09-.3a1.5,1.5,0,0,0,0-.18l-.06-.31-.06-.31a1.52,1.52,0,0,1,0-.19l-.08-.21-.09-.22a2.34,2.34,0,0,1-.09-.46,2.78,2.78,0,0,0-.11-.5,1.13,1.13,0,0,0-.25-.41.59.59,0,0,0-.46-.14.12.12,0,0,0-.09.06.21.21,0,0,0-.05.09l-.4,0-.67.05-.67,0a2.69,2.69,0,0,0-.43,0l-.11,0-.2-.06-.19-.05-.12,0a2,2,0,0,1-.56,0c-.27,0-.55,0-.83-.06a2.51,2.51,0,0,0-.75.06c-.21,0-.32.16-.32.32l0,0L43,82s-.06-.06-.06-.07a1.25,1.25,0,0,0-.16.46.52.52,0,0,1-.25.4.86.86,0,0,1,0,.28c0,.15-.07.3-.11.47s-.09.32-.14.47a1.12,1.12,0,0,0-.07.27.5.5,0,0,1,0,.15,2.25,2.25,0,0,1,0,.22c0,.08,0,.15,0,.22A.49.49,0,0,1,42,85v.16c-.07.19-.12.35-.16.49s-.08.26-.11.39-.09.26-.14.39-.11.31-.17.51a1.81,1.81,0,0,1-.29.41,1.35,1.35,0,0,0-.28.45.3.3,0,0,1,0,.16c0,.07,0,.12,0,.13a1,1,0,0,1-.19.22l-.21.22a1.11,1.11,0,0,0,0,.21.65.65,0,0,1,0,.21.71.71,0,0,1-.16.36.6.6,0,0,1-.26.16,1.09,1.09,0,0,1-.32,0h-.31a.54.54,0,0,1-.15.15h-.06c-.09,0-.15,0-.18-.07s0-.12-.07-.2a1.19,1.19,0,0,0-.07-.23A.45.45,0,0,0,38.7,89a1.85,1.85,0,0,0,.24-.42,1.92,1.92,0,0,0,.11-.37c0-.12.05-.25.07-.37s.05-.26.09-.41a.75.75,0,0,0,0-.17,1.09,1.09,0,0,1,0-.26.58.58,0,0,1,.07-.19c0-.05.08,0,.13,0a2.57,2.57,0,0,0,.12-.91c0-.28-.06-.56-.1-.86a.51.51,0,0,0,.08-.14.93.93,0,0,1,.05-.14.68.68,0,0,0,.06-.22l.06-.21.14-.14.15-.16,0-.06,0,0v0l-.1-.07,0-.06a.28.28,0,0,1,0-.15h.31l-.08-.45.17.14a1.33,1.33,0,0,1,0-.21,1.14,1.14,0,0,1,.07-.21v-.08a.68.68,0,0,0-.1-.33,1,1,0,0,1-.09-.38c0-.05,0-.14,0-.26a.22.22,0,0,1,.14-.24l-.13-.13h.21a.32.32,0,0,1,.23.07.47.47,0,0,1,.13.15.58.58,0,0,0,.11.15.18.18,0,0,0,.17.07.38.38,0,0,0,.16,0,.23.23,0,0,0,.11-.14l-.35,0a.71.71,0,0,1,.33-.6,1.42,1.42,0,0,1-.22-.18,1.1,1.1,0,0,1-.22-.22,1,1,0,0,1,0-.12.76.76,0,0,1,.1-.15l.2-.15.21-.15v-.08a.24.24,0,0,0-.1-.21.41.41,0,0,1-.12-.29h.16a.65.65,0,0,0-.08-.37.56.56,0,0,1-.08-.32h.35a1.23,1.23,0,0,0,0-.21.64.64,0,0,1,0-.21s0-.06,0-.13a2,2,0,0,0,.08-.26c0-.1,0-.19.08-.28a1.42,1.42,0,0,1,.06-.21,1.68,1.68,0,0,0,.09-.33.93.93,0,0,1,.06-.18L42,77a2,2,0,0,1,.27-.22l.09-.06a.18.18,0,0,0,0-.07s0-.12,0-.3a1.58,1.58,0,0,0-.05-.29.08.08,0,0,1,0-.07v-.09a.43.43,0,0,1,0-.24.63.63,0,0,1,.22-.18l-.29-.27A.34.34,0,0,0,42.5,75a1,1,0,0,0,0-.24.53.53,0,0,1,.06-.19s.1-.07.22-.07l-.09-.15-.06-.14v-.06a.81.81,0,0,1,.07-.35,2.9,2.9,0,0,1,.19-.29,3,3,0,0,1,.22-.28.87.87,0,0,0,.18-.31c0-.15.09-.3.13-.45a2.05,2.05,0,0,1,.16-.41.83.83,0,0,1,.27-.32.78.78,0,0,1,.46-.12.45.45,0,0,1,.28.06.51.51,0,0,0,.3.06l.26,0a.48.48,0,0,0,.23-.14l-.29-.29a.48.48,0,0,1,.25-.17c.11,0,.17-.1.17-.19l0,0v0l-.06-.06a.21.21,0,0,0-.09,0s0-.06.06-.1a.14.14,0,0,1,.09,0,.82.82,0,0,1,.31,0l.33,0,.14-.09a.54.54,0,0,1,.15-.08l.12,0,.19,0a.76.76,0,0,1,.19,0l.25.12a1.71,1.71,0,0,1,.23.13.7.7,0,0,1,.15.12.28.28,0,0,1,0,.15,1,1,0,0,0,0,.14.15.15,0,0,0,.06.07l.09,0,.16.3c.07.16.12.25.13.27l.13.1c.07,0,.1.08.1.09s0,.1.07.18.07.17.1.26a2,2,0,0,0,.11.26.61.61,0,0,0,.09.17.25.25,0,0,0-.09.12.42.42,0,0,0-.06.14s0,0,.07.08l.08.08,0,0s0,0,0,0a0,0,0,0,0,0,0v0s0,0,0,.11,0,.11.07.17.05.11.07.17,0,.09,0,.11V74c0,.18,0,.28.06.31a.42.42,0,0,0,.14.06.28.28,0,0,1,.14.09,1,1,0,0,1,.08.44l-.5,0a.71.71,0,0,0,.13.41,3.31,3.31,0,0,0,.3.34,3.2,3.2,0,0,0,.28.26c.08.07.12.12.12.14v.08a.36.36,0,0,1,0,.11s0,.12-.06.19l-.06.19,0,.1s0,0,.06.08l.07.06a.53.53,0,0,1,.1.13,1.32,1.32,0,0,1,.08.14,2.29,2.29,0,0,0,.12.28c.05.13.09.26.14.4s.09.26.14.37a2,2,0,0,0,.08.21v.29a2.91,2.91,0,0,0-.13.28,1.87,1.87,0,0,1-.14.27h-.08l-.05,0a.31.31,0,0,1-.09-.12L49.63,79a.22.22,0,0,0,0,.09c0,.05,0,.09,0,.12s0,.16.08.18l.17,0a.48.48,0,0,1,.18,0s.08,0,.08.13,0,0,0,0,0,0,0,0v0s0,.05-.06.08l-.08.07.16.13.18-.23a.36.36,0,0,1,.26-.11.44.44,0,0,1,0,.09.15.15,0,0,1,0,.1.11.11,0,0,1,0,.07l-.06.06v.16a.61.61,0,0,1,.07.13.52.52,0,0,1,.06.14s0,.07-.05.14a.42.42,0,0,0-.06.14s0,0,0,.07l.09.07.17.06a.24.24,0,0,1,.14.07.58.58,0,0,1,0,.21c0,.12,0,.19,0,.21a.78.78,0,0,1,.1.28,1.53,1.53,0,0,0,.08.28,1.18,1.18,0,0,0,0,.16c0,.09,0,.17,0,.27v.41a1,1,0,0,0,.27.45.73.73,0,0,1,.21.47s0,0,0,0,0,0,0,0v0l-.12.09a.33.33,0,0,1-.13.06l.14.14a.73.73,0,0,1,.13.13.3.3,0,0,1,0,.14v.13a2.18,2.18,0,0,0,.09.24l.14.4a3,3,0,0,0,.16.4l.09.23a2,2,0,0,1,.1.3,1.75,1.75,0,0,1,.06.25,1.13,1.13,0,0,0,0,.14c0,.09,0,.19,0,.3s0,.23,0,.35,0,.2,0,.26a1.57,1.57,0,0,0,.08.41c.05.11.09.22.13.33a1,1,0,0,1,.06.33.81.81,0,0,1-.14.39.64.64,0,0,1-.13.15l-.16.14a.63.63,0,0,1,0,.14.47.47,0,0,1-.07.17h-.14a.29.29,0,0,1-.22-.11c-.09-.08-.13-.12-.13-.11l-.13.07-.14.07a.52.52,0,0,1-.22,0A.53.53,0,0,1,50.79,89.17Zm-11.5.08c-.07,0-.1,0-.09.13s0,.14.11.14.11,0,.1-.14S39.36,89.25,39.29,89.25Zm.62-5a.12.12,0,0,0-.11.15c0,.09.05.13.13.12s.09,0,.08-.14S40,84.21,39.91,84.21Zm.29.42s0-.07-.07-.07-.08,0-.07.07a.07.07,0,0,0,.07.06S40.18,84.67,40.2,84.63Zm.11-1c-.08,0-.11.06-.1.16s0,.14.12.12.1,0,.09-.14S40.38,83.62,40.31,83.62Zm.29,4.23c-.07,0-.11.05-.1.15s0,.14.12.14.1-.07.09-.16S40.67,87.84,40.6,87.85Zm.18-5.4c-.07,0-.1.06-.1.16s0,.14.1.12.09,0,.09-.14S40.84,82.45,40.78,82.45Zm.87-3.13c-.07,0-.1.07-.1.16s0,.12.1.11.12,0,.12-.13S41.73,79.32,41.65,79.32Zm.08,5.89c-.08,0-.12,0-.11.13s.05.14.13.14.09,0,.08-.14S41.79,85.21,41.73,85.21ZM42.35,82c-.07,0-.1,0-.1.13s0,.14.1.14.11-.05.11-.14S42.42,82,42.35,82Zm.27-.46c-.07,0-.1.06-.1.16s0,.14.1.12.09,0,.09-.14S42.68,81.53,42.62,81.53Zm.27-.27c-.08,0-.11,0-.11.13s0,.14.13.14.09,0,.09-.14S43,81.26,42.89,81.26Zm.45-4.12-.21.07a.68.68,0,0,0-.2.1l.56,0,0-.15ZM43,79.84c-.05,0-.07,0-.07.08s0,.08.07,0,.06,0,.06,0S43.06,79.87,43,79.84Zm2.41.31h.46a4.85,4.85,0,0,1,.66,0,5,5,0,0,1,.6.07c.18,0,.29.1.31.18a.84.84,0,0,1,.19-.23,1.18,1.18,0,0,1,.22-.21h0s0,0,0,0l0,0h0l.14,0,.15.07h.14l.08-.07s.06,0,.06-.06v0s0,.05,0,.08a.34.34,0,0,0,0,.1h0c0-.07,0-.16,0-.28a1.25,1.25,0,0,1,0-.22c0-.06,0-.15-.07-.26s-.07-.22-.1-.33l-.08-.27q0-.12-.06-.12l-.29-.13a.51.51,0,0,0,.1-.2,1.28,1.28,0,0,0,0-.22,6.2,6.2,0,0,0-.22-1.22c-.12-.45-.24-.85-.36-1.18a3.26,3.26,0,0,1-.1-.42c-.05-.22-.1-.45-.14-.68s-.09-.46-.14-.67L47,73.54a.17.17,0,0,1-.13-.1.94.94,0,0,1,0-.16V73.1a.16.16,0,0,0,0-.12.29.29,0,0,0-.07-.14.27.27,0,0,1-.08-.15.36.36,0,0,0-.09-.14l-.17-.22-.17-.22a.36.36,0,0,1-.08-.15.76.76,0,0,0-.57.23,1.81,1.81,0,0,0-.26.52,1.2,1.2,0,0,1-.06.17c0,.08,0,.16-.07.25s-.06.18-.08.26a.57.57,0,0,0,0,.16c-.07,0-.13,0-.19.11a1.56,1.56,0,0,0-.18.34,3.7,3.7,0,0,0-.13.4,1.14,1.14,0,0,0-.06.25.21.21,0,0,0,.13.13,1,1,0,0,1-.2.23l-.29.28a1.68,1.68,0,0,0-.25.29.45.45,0,0,0-.11.26.18.18,0,0,0,0,.06.24.24,0,0,0,0,.07l.27-.13c.06.16.11.29.15.38a1.29,1.29,0,0,1,0,.38.07.07,0,0,1-.06,0s0,0,0,0l-.18.28a.43.43,0,0,0-.07.47s.06.09.15.12a.16.16,0,0,1-.1.11l-.11,0-.12,0a.25.25,0,0,0-.1.12,1,1,0,0,1,0,.21.74.74,0,0,1-.09.21.67.67,0,0,1-.21.1l-.22.06h0s0,0,0,0l.08.07s.06,0,.06.06.08.13.15.28a2.86,2.86,0,0,0,.16.28h.06a.42.42,0,0,0,.06.14q.07.1,0,.15l-.2.21a1,1,0,0,0-.2.21,1,1,0,0,0,0,.13.42.42,0,0,1,0,.14.21.21,0,0,1-.06.08l-.08.09s0,0,0,0l0-.12a.21.21,0,0,0,0-.12s0,0,0,0v.08a.43.43,0,0,0,.28.33,1,1,0,0,0,.44.13,6.76,6.76,0,0,0,.82-.12A6.59,6.59,0,0,1,45.43,80.15Zm-2-6c-.06,0-.09,0-.09.14s0,.15.09.15.1-.07.1-.17S43.46,74.14,43.39,74.15Zm1.2-.63c-.06,0-.09,0-.09.14s0,.14.09.14.12,0,.12-.14S44.67,73.52,44.59,73.52Zm3,8a.61.61,0,0,0,.56-.37.63.63,0,0,1-.27.16,1.76,1.76,0,0,1-.31,0Z"/><path class="cls-2" d="M58,77.81a.84.84,0,0,1,.08-.14q.07-.11.06-.15s0-.07-.13-.14a1,1,0,0,1-.14-.13s0,0,0-.07a.54.54,0,0,1,0-.08.87.87,0,0,1-.16-.13l-.13-.14a.58.58,0,0,1-.07-.14.49.49,0,0,0-.09-.15,1,1,0,0,0,0-.22.5.5,0,0,0-.08-.2,2.44,2.44,0,0,1-.16-.31l-.25-.57-.25-.56a.76.76,0,0,0-.18-.3v-.14a.58.58,0,0,0,.07-.14L56.6,74h-.27s0,0,0,.09a1.32,1.32,0,0,0-.05.23c0,.09,0,.18,0,.28s0,.18,0,.24,0,.12,0,.3,0,.36,0,.57,0,.41.05.59,0,.27,0,.28v.14a2,2,0,0,0-.08.21,1.59,1.59,0,0,1-.08.21,2.12,2.12,0,0,0,0,.3c0,.14,0,.31,0,.49s0,.42,0,.65l.25.67-.15.28a2,2,0,0,0-.11.2l-.05.11a.45.45,0,0,0,.06.26,1,1,0,0,0,.1.14.14.14,0,0,1,0,.1.37.37,0,0,1-.18.1,1.56,1.56,0,0,1,.11.52c0,.29.06.64.08,1s0,.84,0,1.3,0,.89,0,1.29.07.75.11,1,.1.45.17.5-.11.16-.13.14a.29.29,0,0,0-.17,0v1.29a.11.11,0,0,1-.09.11l-.22.07-.23,0a.28.28,0,0,0-.15,0s.07,0,.15.11l.24.22.32.31s0,0,0,0,0,0,0,0v0s0,0-.05.07l-.08.07v.13l.08.16a.87.87,0,0,1,.05.13v0s0,0,0,0,0,0,0,0,0,0-.1.09a2.5,2.5,0,0,1-.24.16l-.25.16a.46.46,0,0,1-.18.06c-.13,0-.21,0-.25-.07a.25.25,0,0,0-.2-.08h-.07l-.15.07-.14.08c0-.06-.08-.18-.15-.35s-.11-.29-.13-.35a1,1,0,0,1,0-.21c0-.12,0-.19,0-.22a.58.58,0,0,0-.18-.29.55.55,0,0,1-.13-.42v-.23a.19.19,0,0,1,.16-.19v-1c.08,0,.12-.06.13-.11a.39.39,0,0,0,0-.16c0-.1,0-.17-.07-.2a.17.17,0,0,1-.08-.17v0s0-.15,0-.4,0-.55,0-.92,0-.76,0-1.18,0-.83,0-1.19,0-.67,0-.92,0-.38,0-.4a.88.88,0,0,0,0-.18c0-.09,0-.2,0-.3l-.06-.31a1.5,1.5,0,0,1,0-.18v-.58a.53.53,0,0,0-.06-.13.64.64,0,0,0-.08-.14v-.15a.9.9,0,0,0,.06-.22c0-.11,0-.22.08-.34a2,2,0,0,1,.09-.33l.06-.22a.75.75,0,0,1-.08-.14.85.85,0,0,1-.07-.15v-.15l.08-.21c0-.12.06-.19.07-.21v-.14s0-.06,0-.14a1.86,1.86,0,0,1-.05-.27c0-.1,0-.18,0-.27a.8.8,0,0,1,0-.16V74.9a.31.31,0,0,0-.07-.15.56.56,0,0,1-.07-.14v-.42s0-.11,0-.2,0-.2,0-.31,0-.21,0-.3,0-.14,0-.17l.09-.21a1.25,1.25,0,0,0,.06-.21.19.19,0,0,0,0-.1.18.18,0,0,0-.1-.06l.09-.06.06-.07a4,4,0,0,0,.28-.82,2.12,2.12,0,0,0,0-.87.51.51,0,0,1,.14-.08l.15-.07h.13l.16.14a.64.64,0,0,1,.13.15,1.41,1.41,0,0,1,.14-.16,2.28,2.28,0,0,1,.22-.22,1,1,0,0,1,.26-.16.32.32,0,0,1,.23,0,1.41,1.41,0,0,1,.22.17,1.18,1.18,0,0,1,.21.25.25.25,0,0,1,0,.14.93.93,0,0,0,0,.13.6.6,0,0,0,.15.16l.14.13a3.06,3.06,0,0,1,.28.42c.1.17.2.35.29.54a5.4,5.4,0,0,1,.26.55c.08.18.14.34.18.46s0,.1,0,.21a.53.53,0,0,0,0,.21,6.85,6.85,0,0,0,.23.88,2,2,0,0,0,.47.81s.07,0,.15.08a.22.22,0,0,1,.14.08.19.19,0,0,1,0,.13.45.45,0,0,0,0,.13h.41a1.12,1.12,0,0,1,0,.24.24.24,0,0,1-.17.19.33.33,0,0,1,.16.15,1.23,1.23,0,0,0,0,.18c0,.11.05.22.07.35s.05.23.07.34a.58.58,0,0,0,0,.18l.16.07c.07,0,.12.05.13.07a1.23,1.23,0,0,1,.15.26,2.92,2.92,0,0,1,.14.31.29.29,0,0,1,0,.14.25.25,0,0,0,0,.13.21.21,0,0,0,.06.08l.08.07a1.33,1.33,0,0,1,.15.22,1,1,0,0,0,.14.2l.07.22.06.21a1.47,1.47,0,0,0,.23.13.91.91,0,0,1,.2.13.67.67,0,0,1,.11.42c0,.17,0,.35,0,.52a1.48,1.48,0,0,0,.08.49.52.52,0,0,0,.4.3,3,3,0,0,1,.25.44c.13.26.28.56.45.92L63,84l.54,1.14q.27.52.45.9a1.56,1.56,0,0,0,.26.43,2.07,2.07,0,0,0,.48.33l.51.25,0-.18c0-.07,0-.15,0-.24l0-.26a.71.71,0,0,0,0-.17V84.93c0-.54,0-1.11,0-1.7s0-1.15,0-1.68,0-1-.06-1.25v-.69a.9.9,0,0,0-.07-.22c0-.12-.07-.19-.09-.22v-.12c0-.11,0-.29,0-.55s0-.52,0-.81,0-.55,0-.8a1.89,1.89,0,0,1,.07-.54l.14-.13v-.08a.84.84,0,0,0-.13-.39,2.25,2.25,0,0,1-.16-.37v-.16s0-.18,0-.43.05-.52.07-.82,0-.58.08-.84,0-.4,0-.44,0-.12,0-.28,0-.33,0-.5v-.5a1.09,1.09,0,0,1,0-.27.78.78,0,0,1,.13-.19l.26-.27a2.91,2.91,0,0,1,.27-.24l.19-.14a.15.15,0,0,0,0,.08.14.14,0,0,0,.09.05.33.33,0,0,0,.14-.07.37.37,0,0,1,.15-.06h.06s0,0,0,0l0,0h0c.2.21.37.39.53.53a1.27,1.27,0,0,1,.33.58q-.11.2-.12.15s-.06,0-.16,0v1.33L67,72.69l.14-.13-.06,0a.24.24,0,0,0-.16.08,1.54,1.54,0,0,0-.17.19.76.76,0,0,0-.12.19.27.27,0,0,0,0,.11s0,0,0,0v0a.06.06,0,0,0,0,0s0,0,0,0a.58.58,0,0,1,.34-.17,2.42,2.42,0,0,1,.37,0v.46l.28-.14v.08c0,.14,0,.28,0,.44a3.12,3.12,0,0,1-.09.44,1.91,1.91,0,0,1-.18.38.58.58,0,0,1-.31.23l.22.2a2.1,2.1,0,0,1,.2.22.13.13,0,0,1,0,.1c-.17,0-.27.05-.3.16a1.08,1.08,0,0,0,0,.37c0,.13,0,.26,0,.38a.23.23,0,0,1-.15.24h-.28l-.14,0-.15.08s0,.06.12.09l.25.11.26.09.17,0c0,.09,0,.24,0,.44s0,.42,0,.64a4.17,4.17,0,0,0,0,.63.44.44,0,0,0,.17.36l-.29.29.15.14.14.14v.14l-.08.14a.31.31,0,0,0-.07.15,1.33,1.33,0,0,0,0,.22,4.12,4.12,0,0,1,.08.45q0,.24.09.45c0,.13,0,.21,0,.22v0s0,0,0,0,0,0,0,0,0,0,0,0v0a1.46,1.46,0,0,1,0,.2c0,.12-.05.26-.08.4s-.05.27-.07.39a1,1,0,0,1-.06.2.21.21,0,0,1,.14.07.75.75,0,0,1,.16.15,1.74,1.74,0,0,1,.11.18c0,.07,0,.12,0,.16a.55.55,0,0,1-.19.18.46.46,0,0,1-.23.1l.22,0a.41.41,0,0,1,.2.09V84a1.72,1.72,0,0,1,0,.22c0,.13-.07.29-.11.45s-.08.32-.11.46,0,.22,0,.23v.16c0,.09,0,.17,0,.26a2.5,2.5,0,0,1,0,.25,1.31,1.31,0,0,1,0,.17h.16a1.12,1.12,0,0,1,0,.24.24.24,0,0,1-.17.19.77.77,0,0,0,.09.28l.13.18a.33.33,0,0,1,.07.16.4.4,0,0,1,0,.26s-.05,0-.09.06-.07.06-.07.07l0,.11a1.67,1.67,0,0,0,0,.18l.06.17a.33.33,0,0,1,0,.1l-.07.08-.14.14-.13.13-.09.09a1.17,1.17,0,0,0-.21.3.7.7,0,0,0-.12.35.54.54,0,0,0-.25.06l-.23.11-.26.12a.75.75,0,0,1-.31,0,.91.91,0,0,1-.42-.11,3.87,3.87,0,0,1-.47-.28c-.15-.11-.3-.22-.44-.34L64,88.54a1.22,1.22,0,0,1-.16-.22c-.07-.12-.12-.19-.13-.22l-.22-.19-.36-.29-.36-.28a1.93,1.93,0,0,1-.22-.18c0-.2-.1-.37-.13-.49l-.12-.47a.71.71,0,0,1-.24-.34c-.06-.17-.12-.34-.18-.53s-.11-.36-.17-.54a.87.87,0,0,0-.17-.35,1.78,1.78,0,0,0-.21-.14,1.24,1.24,0,0,1-.22-.15s0-.05-.11-.16l-.25-.41c-.09-.17-.2-.35-.32-.55s-.22-.38-.31-.55-.19-.32-.26-.44-.11-.2-.12-.23a1.88,1.88,0,0,1-.18-.35l-.33-.71c-.13-.27-.26-.57-.4-.9s-.28-.63-.4-.91-.22-.53-.3-.74A1.7,1.7,0,0,1,58,77.81ZM55.86,88.62H56v-.14ZM66.21,76.07c-.08,0-.12,0-.12.14s0,.14.12.14.1,0,.1-.14S66.27,76.07,66.21,76.07Zm.46-5.51q-.09,0-.09.15c0,.09,0,.14.09.14s.12,0,.12-.14S66.75,70.56,66.67,70.56Zm0,5.79h.28v-.13h-.28Z"/><path class="cls-2" d="M70.89,88.94v0a.05.05,0,0,1,0,0,.37.37,0,0,1,.06-.1.09.09,0,0,1,.08-.06,1.16,1.16,0,0,1-.32-.2,1.12,1.12,0,0,1-.29-.26l0,0a.13.13,0,0,1,0-.06,1,1,0,0,1,0-.18.29.29,0,0,1,.12-.15c-.22-.06-.33-.12-.34-.19a1.69,1.69,0,0,0-.1-.36s0,0-.07-.08l-.09-.06L69.85,87a.53.53,0,0,1-.06-.15v-.14a.49.49,0,0,0-.16-.07c-.08,0-.13,0-.15-.08l0-.06v0s0,0,0,0,0-.06.13-.09l.16-.07,0-.06v-.11a1.7,1.7,0,0,1-.1-.28,1.7,1.7,0,0,0-.1-.28v-.15s0,0,0-.15a3,3,0,0,0,0-.33c0-.11,0-.22,0-.32s0-.16,0-.18v0s0,0,0,0h0l0-.06a.45.45,0,0,0-.21-.07.46.46,0,0,1-.22-.07s0,0,0,0v0a.13.13,0,0,1,0-.08l.28-.13a1,1,0,0,0,.27-.18v-.84a.57.57,0,0,0,0-.18.23.23,0,0,0-.15-.14l-.11.3a1,1,0,0,1-.17-.38,4.05,4.05,0,0,1,0-.42,4.38,4.38,0,0,1,0-.47c0-.19,0-.37.08-.55s.06-.34.08-.5a2.86,2.86,0,0,0,0-.32v-.08a.43.43,0,0,0,0-.1l-.06-.2-.06-.19,0-.1V79.4l0,0v0a.49.49,0,0,1,.16-.07c.07,0,.12,0,.13-.08s.07-.23.1-.31,0-.15.08-.24a2.25,2.25,0,0,0,0-.22.6.6,0,0,0,.06-.22c0-.12.05-.19.06-.22s0,0,.1,0l.09,0c0-.21,0-.43,0-.68a6.06,6.06,0,0,1,0-.74,5.51,5.51,0,0,1,.08-.71,1.86,1.86,0,0,1,.21-.59s.07-.1.14-.22a2.48,2.48,0,0,1,.13-.22v-.11a1.37,1.37,0,0,0,0-.19.68.68,0,0,1,0-.19V74.3l.11-.22a1.37,1.37,0,0,1,.16-.24l.14-.07c.07,0,.11,0,.11-.06l.06-.11a1.07,1.07,0,0,1,.09-.19c0-.07.06-.14.08-.2a.31.31,0,0,0,0-.12,6.52,6.52,0,0,1,.43-.64,4.33,4.33,0,0,0,.42-.64,2.71,2.71,0,0,0,.25-.53,1.2,1.2,0,0,1,.17-.36.8.8,0,0,1,.33-.25,2.82,2.82,0,0,1,.73-.18h.29a1,1,0,0,0,.27,0l.29-.1.26-.09a.23.23,0,0,1,.19,0l.15.15c.08.09.13.14.16.14s0,0,.12-.06l.15-.1h0a.21.21,0,0,1,.16.09l.14.18a.38.38,0,0,0,.12.15.09.09,0,0,0,.13,0c.31.18.64.39,1,.63a4,4,0,0,1,.93.79.66.66,0,0,1,.08.17q.06.14.12.3c0,.11.08.21.11.31a1,1,0,0,0,.08.16,2.68,2.68,0,0,0,.38.37.56.56,0,0,1,.24.44V74a.36.36,0,0,1-.07.09c0,.05,0,.07,0,.09s0,0,0,.09a.51.51,0,0,1,0,.1c.24,0,.39,0,.46.14a1,1,0,0,1,.13.38c0,.14,0,.26,0,.38a.17.17,0,0,0,.16.19l-.15.17a.29.29,0,0,1,.25.06.4.4,0,0,1,.07.19v.29c0,.15,0,.32,0,.49a3.64,3.64,0,0,1,0,.48q0,.21-.09.24a.54.54,0,0,1,.43.17,1.12,1.12,0,0,1,.22.42,2.94,2.94,0,0,1,.08.53c0,.18,0,.34.06.47s0,.06.09.14a.89.89,0,0,0,.09.15v0s0,0,0,0v.08a.36.36,0,0,0-.09.09,1.85,1.85,0,0,0-.14.14l-.12.14a.3.3,0,0,0-.06.09,1,1,0,0,0,0,.29c0,.16,0,.34.08.54s.06.39.08.56a2.38,2.38,0,0,1,0,.3l-.13.15-.14.15a.57.57,0,0,0,0,.22c0,.12,0,.2,0,.22a1.23,1.23,0,0,1-.07.24l-.14.5a4.27,4.27,0,0,1-.18.54,1.32,1.32,0,0,1-.15.33s0,0-.06.06,0,0,0,.06l0,0,0,.24c0,.14,0,.3.06.47s0,.32.06.46,0,.21,0,.23a.42.42,0,0,1-.13.08.33.33,0,0,0-.14.09s0,.06-.06.14l-.06.17-.11.08c-.06,0-.12.09-.18.15l-.18.14c-.05,0-.07.07-.07.09s0,0,0,.09a1.21,1.21,0,0,0,0,.18.54.54,0,0,0,0,.19.66.66,0,0,1,0,.11l-.14.08a.4.4,0,0,1-.15,0,1.88,1.88,0,0,1-.18.23,4.09,4.09,0,0,1-.28.33L78,88l-.19.21-.06,0h-.08a.39.39,0,0,1-.25,0,.73.73,0,0,1-.2-.26.29.29,0,0,1,0,.24.38.38,0,0,1-.19.09l-.24.05a.46.46,0,0,0-.2.08.91.91,0,0,1,.22.06.78.78,0,0,1,.2.09v0a.08.08,0,0,0,0,0s0,.07-.09.14a1.42,1.42,0,0,1-.21.22l-.24.22c-.08.07-.12.11-.14.11h-.58a.79.79,0,0,0-.2.09l-.2.08h-.29a1.21,1.21,0,0,0-.28,0,.15.15,0,0,0-.07.06l-.08.07-.06,0h0l0,0h0s0,0,0,0,0,0-.06-.06-.06.1-.11.11h-.16s0,0-.1,0H74a.8.8,0,0,1-.19,0l-.27,0-.26,0-.15,0-.15-.08-.14-.06h-.72l-.11,0-.17-.08-.17-.09-.11,0-.31-.08L70.91,89ZM70,85.49c-.07,0-.09.05-.09.15s0,.14.11.14.11,0,.11-.14S70.06,85.49,70,85.49Zm.25-5.15c-.06,0-.1,0-.1.15s0,.16.1.16.12-.06.12-.16S70.31,80.34,70.23,80.34Zm.37-4.56c-.08,0-.11,0-.11.15s.05.15.13.15.09,0,.09-.15S70.66,75.78,70.6,75.78Zm.41-.31c-.08,0-.12,0-.11.14s0,.15.13.15.09-.05.08-.15S71.07,75.47,71,75.47Zm.29,12.94q-.1,0-.09.15c0,.1,0,.15.11.15s.11,0,.1-.15S71.37,88.41,71.3,88.41Zm.13-2.84a.34.34,0,0,1,.25.24,2.2,2.2,0,0,1,.09.42c0,.16,0,.33.08.5a.92.92,0,0,0,.24.47,1.4,1.4,0,0,0,.21.13,1.84,1.84,0,0,1,.24.16.24.24,0,0,1,.07.14c0,.08.06.13.08.13a.85.85,0,0,0,.51.15h.5a5.34,5.34,0,0,0,2.12-.37,4,4,0,0,0,1.36-1A5,5,0,0,0,78,85.16c.21-.52.41-1,.59-1.58a3.7,3.7,0,0,0,.14-.88c0-.43,0-.87,0-1.34s0-.9.06-1.32a3.22,3.22,0,0,1,.14-.87v0s0,0,0,0,0,0,0,0l0,0L78.91,79s-.06-.06-.06-.08a.66.66,0,0,0,0-.11c0-.07,0-.13,0-.19a1.15,1.15,0,0,0,0-.19.77.77,0,0,0,0-.1l-.22-.06c-.12,0-.19,0-.2-.08s0,0,0-.07a.78.78,0,0,1,0-.14.42.42,0,0,1,0-.22.31.31,0,0,1,.11-.09l.13,0a.08.08,0,0,0,.06-.08c-.12,0-.21-.08-.28-.25a2.64,2.64,0,0,1-.17-.56c0-.21-.07-.41-.1-.61A1.08,1.08,0,0,0,78,75.7a.87.87,0,0,1-.16-.13.6.6,0,0,1-.15-.16v-.29a1.27,1.27,0,0,0,0-.2.29.29,0,0,0,0-.1.21.21,0,0,0-.06-.08l-.07-.07s0-.1,0-.21a.83.83,0,0,0,0-.2l.19,0a.22.22,0,0,0,.1,0,.16.16,0,0,0,.1,0,1.13,1.13,0,0,0,.16-.13.62.62,0,0,0-.26-.09l-.28,0-.27,0a.31.31,0,0,1-.2-.14.32.32,0,0,1-.06-.2,2.62,2.62,0,0,0,0-.27A1.67,1.67,0,0,0,77,73.1a.47.47,0,0,0-.22-.25l-.14-.06-.15-.08a.05.05,0,0,1,0,0v-.11l.07-.07.08-.07-.06,0a.19.19,0,0,0-.09,0,.27.27,0,0,0-.2.07.26.26,0,0,0,0,.27,1.08,1.08,0,0,1-.4-.2l-.36-.29a3.59,3.59,0,0,0-.33-.25.56.56,0,0,0-.33-.1h-.07a1.1,1.1,0,0,0-.21.13l-.26.2-.23.2-.12.1-.06.11a1.71,1.71,0,0,0-.07.18,1.54,1.54,0,0,0-.08.19l-.06.11a.53.53,0,0,1-.1.15l-.16.23-.17.24a.35.35,0,0,0-.07.15,1.81,1.81,0,0,0-.16.32c-.06.16-.13.33-.21.52s-.15.38-.21.55-.11.28-.14.34a.09.09,0,0,1,0,.13.46.46,0,0,1-.07.1s-.05.05-.07.05a2.3,2.3,0,0,0,0,.33c0,.19,0,.4-.07.62s0,.43-.06.63a3,3,0,0,1-.05.34h-.13s0,.11,0,.2a3,3,0,0,0,0,.32c0,.11,0,.22,0,.31a1.3,1.3,0,0,1,0,.21.35.35,0,0,1,0,.1l-.08.18c0,.07,0,.13-.07.19a.48.48,0,0,0,0,.12,1.78,1.78,0,0,0,0,.66,2.36,2.36,0,0,1,0,.66,5.21,5.21,0,0,0-.06.7c0,.3,0,.62,0,1s0,.65-.07,1a3.42,3.42,0,0,1-.11.71.05.05,0,0,0,0,0v0a.73.73,0,0,0,.06.22c0,.11.07.23.11.35s.08.24.12.34a.81.81,0,0,1,.06.24c0,.07,0,.13,0,.18S71.51,85.55,71.43,85.57Zm.08-10.87c-.06,0-.09.06-.09.16s0,.15.11.15.09-.05.09-.15S71.57,74.7,71.51,74.7Zm.12,2.94s0-.08-.07-.07-.08,0-.07.09a.06.06,0,0,0,.08,0A.06.06,0,0,0,71.63,77.64Zm0,11.06.29-.18h-.29ZM72.09,75c-.06,0-.09.07-.09.16s0,.14.11.13.11,0,.11-.14S72.17,75,72.09,75Zm.21-2.87c-.06,0-.09,0-.08.14s0,.14.1.14.12,0,.11-.14S72.38,72.12,72.3,72.12Zm.41-.46c0-.07,0-.1-.07-.1s-.08,0-.06.1,0,0,.07,0S72.71,71.7,72.71,71.66Zm.06.88c-.07,0-.09,0-.09.14s0,.15.11.15.11,0,.11-.15S72.85,72.54,72.77,72.54Zm.31-.92a.17.17,0,0,0-.18.1.26.26,0,0,0,0,.21.34.34,0,0,0,0,.09s0,.06,0,.08l.25-.46Zm0,.92c-.06,0-.09,0-.09.14s0,.15.11.15.09-.07.09-.17S73.12,72.53,73.06,72.54Zm.81-.65c-.06,0-.09,0-.08.15s0,.15.1.15.1,0,.09-.15S73.94,71.89,73.87,71.89Zm1.77-1.52c.06,0,.1,0,.1.15s0,.14-.08.14-.12,0-.13-.14S75.56,70.37,75.64,70.37Zm.11,1.77a.21.21,0,0,0,0,.09.12.12,0,0,0,.09.06.33.33,0,0,0,.14-.07l.15-.1s0-.05-.07-.08A.3.3,0,0,0,76,72l-.13,0A.25.25,0,0,0,75.75,72.14Zm1.8,15.63c-.07,0-.11,0-.1.14a.11.11,0,0,0,.12.13q.11,0,.09-.15C77.65,87.8,77.62,87.76,77.55,87.77Zm2.72-9.08h.29l-.16-.13Z"/><path class="cls-2" d="M84.56,89.29l-.12-.05c-.06,0-.1,0-.11,0s0,.06,0,.14a.21.21,0,0,1,0,.15h-.14a.42.42,0,0,1-.09-.14l-.06-.15a.38.38,0,0,1-.13.1.21.21,0,0,1-.15,0h-.27a.55.55,0,0,1-.27,0,.28.28,0,0,0-.2,0l-.22,0a.28.28,0,0,1-.18,0s-.1-.06-.13-.15a2.51,2.51,0,0,1-.1-.48c0-.1,0-.2,0-.3H83a.25.25,0,0,0-.2-.24l-.3,0s0-.16,0-.32a2.15,2.15,0,0,1,0-.32.35.35,0,0,1,0-.1,1.62,1.62,0,0,0,.1-.18c0-.07.07-.13.1-.19a.42.42,0,0,0,0-.1s0-.13-.07-.3l-.16-.56-.14-.57a2.32,2.32,0,0,1-.06-.3.66.66,0,0,1,.08-.27l.11-.21a2.12,2.12,0,0,0,.11-.21.55.55,0,0,0,0-.25,4.33,4.33,0,0,0,0-.55,4.07,4.07,0,0,0-.13-.59l.29-.29-.08-.07a.22.22,0,0,1-.07-.07V82.6a1.23,1.23,0,0,1,0-.18l.06-.31c0-.11,0-.21,0-.31a.77.77,0,0,0,0-.18c0-.11,0-.36,0-.73s0-.82,0-1.32-.06-1-.08-1.59-.05-1.09-.08-1.59,0-.93-.06-1.3,0-.62,0-.73a2.88,2.88,0,0,0,0-.59c0-.33,0-.7,0-1.1s0-.76,0-1.1a4.82,4.82,0,0,1,0-.58s0,0,0-.11,0-.12.05-.18,0-.13,0-.18,0-.1,0-.11l.07-.08a.11.11,0,0,1,.09,0l.85,0s.07,0,.14.1a1,1,0,0,1,.15.18v.06s0,0,0,0,0,0,0,0a.88.88,0,0,1,0,.17S84,71,83.88,71a.23.23,0,0,0,.21.16l.28,0a1.09,1.09,0,0,0,0,.2c0,.11,0,.23,0,.36s0,.26,0,.37a1,1,0,0,1,0,.18l-.07.08-.08,0s0,.11.06.28.08.36.12.57.09.39.14.56a.91.91,0,0,0,.08.26s0,.17,0,.36,0,.42-.07.67a6.23,6.23,0,0,0,0,.75,2.53,2.53,0,0,0,.11.67,1.16,1.16,0,0,1,0,.17,1.43,1.43,0,0,0,0,.22,1.55,1.55,0,0,0,0,.21.53.53,0,0,1,0,.11,1.2,1.2,0,0,1-.08.15.35.35,0,0,0-.06.14c0,.24,0,.47.08.67l.08.69V79a.81.81,0,0,0,.06.22l.07.2v3.1a.76.76,0,0,1-.1.37.34.34,0,0,1-.32.19,1.27,1.27,0,0,1,.28.8c0,.31,0,.59,0,.85a3.27,3.27,0,0,1-.08.7,3.24,3.24,0,0,0-.08.72v.46s0,.11,0,.23,0,.23,0,.36,0,.25.06.36a.44.44,0,0,0,.07.2s0,0,.06,0l.16.06.26,0a.76.76,0,0,0,.37-.11L86,87.6h2l.77-.09a6,6,0,0,1,.78-.06h.3l.38,0a1.62,1.62,0,0,1,.35.09.34.34,0,0,1,.19.18s0,.07,0,.16,0,.15,0,.17,0,0,0,.08a.26.26,0,0,1,0,.07l.14,0s0,.13,0,.27,0,.24,0,.28,0,0,0,.07l-.09.07-.15.12-.19.14a1.35,1.35,0,0,1-.24.18h-.85l-.14,0-.13.08h-.29a1,1,0,0,1-.32,0,.68.68,0,0,0-.3.05l-.18-.09-.17-.08-.41.17s0,0,.07,0,0-.07.07-.06l-.19,0-.2,0h-.43a.48.48,0,0,1-.09-.14c0-.07-.06-.12,0-.14s0,.2-.07.24a.45.45,0,0,1-.2,0h-.37l-.28,0-.15,0-.13,0-.28,0h-.4S84.56,89.4,84.56,89.29ZM82.7,87.41c-.06,0-.1,0-.1.14s0,.15.1.15.12,0,.12-.15S82.78,87.41,82.7,87.41ZM83.17,89c-.07,0-.1.05-.1.14s0,.13.1.13.09,0,.09-.13S83.23,89,83.17,89Zm0-18.32c-.07,0-.11,0-.11.15s0,.14.11.14.1-.05.1-.14S83.29,70.64,83.22,70.64Zm3.65,17.9q-.12,0-.12.15c0,.09,0,.14.12.14s.09,0,.09-.14S86.93,88.54,86.87,88.54Zm1.7-.77c-.08,0-.11,0-.11.14s0,.13.11.13.1,0,.1-.13S88.64,87.77,88.57,87.77Zm1.13,1.12c-.07,0-.1,0-.1.14s0,.14.1.14.11,0,.11-.14S89.77,88.89,89.7,88.89Z"/><path class="cls-2" d="M104.59,89.17a3.7,3.7,0,0,0-.1-.74,6.83,6.83,0,0,1-.14-.75v-.59c0-.23,0-.45,0-.64a.78.78,0,0,0-.11-.38q-.07-.09-.21.21a1.86,1.86,0,0,1-.09-.31l-.16-.53c-.06-.19-.11-.37-.15-.53l-.09-.3a1.5,1.5,0,0,0,0-.18l-.06-.31c0-.1,0-.21-.05-.31a1.52,1.52,0,0,1,0-.19,1.23,1.23,0,0,1-.09-.21c-.05-.12-.07-.19-.09-.22a2.34,2.34,0,0,1-.09-.46,1.72,1.72,0,0,0-.11-.5,1.27,1.27,0,0,0-.24-.41.62.62,0,0,0-.47-.14s-.05,0-.09.06a.16.16,0,0,0,0,.09l-.41,0-.67.05-.67,0a2.53,2.53,0,0,0-.42,0l-.12,0-.19-.06-.2-.05-.11,0a2,2,0,0,1-.57,0c-.27,0-.54,0-.83-.06a2.44,2.44,0,0,0-.74.06c-.22,0-.32.16-.32.32l0,0L96.78,82s-.06-.06-.06-.07a1.09,1.09,0,0,0-.15.46.53.53,0,0,1-.26.4.51.51,0,0,1,0,.28c0,.15-.07.3-.11.47s-.09.32-.14.47a1.52,1.52,0,0,0-.06.27s0,.08,0,.15,0,.14,0,.22a2.25,2.25,0,0,0-.05.22.25.25,0,0,1,0,.12v.16c-.06.19-.12.35-.15.49l-.12.39c0,.13-.09.26-.14.39s-.11.31-.17.51a1.54,1.54,0,0,1-.29.41,1.18,1.18,0,0,0-.27.45.91.91,0,0,1,0,.16.35.35,0,0,1,0,.13,1.94,1.94,0,0,1-.2.22,2.49,2.49,0,0,1-.21.22s0,.1,0,.21a.65.65,0,0,1,0,.21.71.71,0,0,1-.16.36.54.54,0,0,1-.26.16,1.06,1.06,0,0,1-.32,0h-.31a.54.54,0,0,1-.15.15H93c-.09,0-.15,0-.17-.07a.93.93,0,0,1-.07-.2c0-.07,0-.15-.08-.23A.42.42,0,0,0,92.5,89a2.23,2.23,0,0,0,.23-.42,3.16,3.16,0,0,0,.12-.37l.06-.37c0-.12,0-.26.09-.41a.75.75,0,0,0,0-.17,2,2,0,0,1,0-.26.42.42,0,0,1,.08-.19c0-.05.07,0,.12,0a2.36,2.36,0,0,0,.12-.91c0-.28-.06-.56-.1-.86a.34.34,0,0,0,.08-.14.69.69,0,0,1,.06-.14l.06-.22a1.63,1.63,0,0,1,.05-.21l.14-.14.15-.16,0-.06,0,0v0s0,0-.09-.07l-.06-.06a.28.28,0,0,1,0-.15H94l-.08-.45.18.14a.7.7,0,0,1,0-.21,1.7,1.7,0,0,1,.06-.21v-.08a.8.8,0,0,0-.09-.33.85.85,0,0,1-.1-.38c0-.05,0-.14,0-.26a.21.21,0,0,1,.15-.24L94,81.49h.21a.34.34,0,0,1,.24.07.44.44,0,0,1,.12.15.58.58,0,0,0,.11.15.19.19,0,0,0,.17.07.43.43,0,0,0,.17,0,.22.22,0,0,0,.1-.14l-.35,0a.71.71,0,0,1,.33-.6,1.42,1.42,0,0,1-.22-.18,1.47,1.47,0,0,1-.22-.22.57.57,0,0,1,.06-.12l.09-.15.21-.15.2-.15v-.08a.22.22,0,0,0-.1-.21.38.38,0,0,1-.11-.29h.15a.58.58,0,0,0-.08-.37.56.56,0,0,1-.07-.32h.35s0-.09,0-.21,0-.19,0-.21a.49.49,0,0,1,0-.13c0-.08,0-.17.07-.26s.06-.19.08-.28a1.89,1.89,0,0,0,.06-.21,3.43,3.43,0,0,0,.1-.33.56.56,0,0,1,0-.18l.12-.14a2,2,0,0,1,.27-.22.24.24,0,0,0,.09-.06.18.18,0,0,0,0-.07s0-.12,0-.3a1.58,1.58,0,0,0,0-.29.14.14,0,0,1,0-.07v-.09a.54.54,0,0,1,.05-.24.74.74,0,0,1,.22-.18l-.29-.27a.34.34,0,0,0,.21-.22.69.69,0,0,0,0-.24.53.53,0,0,1,.06-.19s.11-.07.22-.07a.94.94,0,0,1-.08-.15l-.07-.14v-.06a.69.69,0,0,1,.08-.35,1.75,1.75,0,0,1,.18-.29c.07-.1.15-.19.22-.28a.87.87,0,0,0,.18-.31c.05-.15.09-.3.13-.45a2.05,2.05,0,0,1,.16-.41.83.83,0,0,1,.27-.32.81.81,0,0,1,.46-.12.48.48,0,0,1,.29.06.48.48,0,0,0,.3.06l.26,0a.5.5,0,0,0,.22-.14l-.29-.29a.48.48,0,0,1,.25-.17c.12,0,.18-.1.18-.19l0,0v0l-.07-.06a.14.14,0,0,0-.09,0s0-.06.06-.1a.14.14,0,0,1,.1,0,.81.81,0,0,1,.31,0,2,2,0,0,0,.33,0l.13-.09a.44.44,0,0,1,.16-.08l.11,0,.2,0,.18,0a1.42,1.42,0,0,1,.25.12,1.26,1.26,0,0,1,.23.13.51.51,0,0,1,.15.12.17.17,0,0,1,0,.15,1,1,0,0,0,0,.14s0,0,.07.07l.08,0,.16.3.13.27.13.1c.07,0,.11.08.11.09a1.84,1.84,0,0,0,.06.18,2.77,2.77,0,0,1,.1.26,2,2,0,0,0,.11.26.57.57,0,0,0,.1.17s-.06.05-.1.12a.42.42,0,0,0-.06.14s0,0,.07.08l.09.08,0,0s0,0,0,0a0,0,0,0,0,0,0v0s0,0,0,.11,0,.11.07.17a1.22,1.22,0,0,1,.07.17c0,.06,0,.09,0,.11V74c0,.18,0,.28.07.31a.38.38,0,0,0,.13.06.28.28,0,0,1,.14.09,1.07,1.07,0,0,1,.09.44l-.51,0a.72.72,0,0,0,.14.41,2.37,2.37,0,0,0,.29.34l.28.26c.08.07.13.12.13.14v.08l0,.11a.84.84,0,0,0-.07.19l-.06.19,0,.1s0,0,.06.08.06.06.08.06a.56.56,0,0,1,.09.13,1.32,1.32,0,0,1,.08.14c0,.06.07.16.12.28s.1.26.14.4.09.26.14.37a.74.74,0,0,0,.09.21v.29a1.36,1.36,0,0,0-.14.28,2.35,2.35,0,0,1-.13.27h-.08l-.06,0a.31.31,0,0,1-.09-.12.54.54,0,0,0-.07-.12.14.14,0,0,0,0,.09.57.57,0,0,0,0,.12c0,.1,0,.16.07.18l.18,0a.47.47,0,0,1,.17,0s.08,0,.08.13a0,0,0,0,1,0,0s0,0,0,0v0s0,.05-.06.08l-.08.07.16.13.18-.23a.36.36,0,0,1,.26-.11v.09a.62.62,0,0,1,0,.1.18.18,0,0,1,0,.07l-.07.06v.16l.08.13a.52.52,0,0,1,.06.14s0,.07,0,.14a.33.33,0,0,0-.07.14s0,0,0,.07l.08.07.17.06a.24.24,0,0,1,.14.07.41.41,0,0,1,0,.21c0,.12,0,.19,0,.21a.78.78,0,0,1,.1.28c0,.16.07.25.08.28a1.18,1.18,0,0,0,0,.16c0,.09,0,.17,0,.27v.41a1,1,0,0,0,.27.45.73.73,0,0,1,.21.47s0,0,0,0a0,0,0,0,0,0,0v0l-.11.09a.35.35,0,0,1-.14.06l.15.14a.56.56,0,0,1,.12.13s0,.06,0,.14v.13a2.18,2.18,0,0,0,.09.24l.14.4.16.4a1.54,1.54,0,0,0,.1.23l.09.3a1.75,1.75,0,0,1,.06.25,1.13,1.13,0,0,0,0,.14c0,.09,0,.19,0,.3l0,.35c0,.11,0,.2,0,.26a1.24,1.24,0,0,0,.09.41l.12.33a1,1,0,0,1,.06.33.78.78,0,0,1-.13.39.79.79,0,0,1-.14.15l-.16.14a1.2,1.2,0,0,1,0,.14.68.68,0,0,1-.08.17h-.14a.29.29,0,0,1-.22-.11c-.08-.08-.13-.12-.13-.11l-.13.07-.14.07a.52.52,0,0,1-.22,0A.41.41,0,0,1,104.59,89.17Zm-11.51.08c-.07,0-.1,0-.09.13s0,.14.11.14.11,0,.1-.14S93.16,89.25,93.08,89.25Zm.62-5c-.08,0-.11.06-.11.15s0,.13.13.12.09,0,.09-.14S93.76,84.21,93.7,84.21Zm.29.42s0-.07-.07-.07-.08,0-.07.07,0,.06.07.06A.07.07,0,0,0,94,84.63Zm.12-1c-.08,0-.12.06-.11.16s0,.14.12.12.1,0,.09-.14S94.17,83.62,94.11,83.62Zm.29,4.23c-.08,0-.12.05-.11.15s0,.14.13.14.09-.07.08-.16S94.46,87.84,94.4,87.85Zm.17-5.4c-.06,0-.1.06-.1.16s0,.14.1.12.1,0,.1-.14S94.63,82.45,94.57,82.45Zm.87-3.13c-.06,0-.09.07-.09.16s0,.12.09.11.12,0,.12-.13S95.52,79.32,95.44,79.32Zm.08,5.89c-.08,0-.11,0-.11.13s0,.14.13.14.09,0,.09-.14S95.58,85.21,95.52,85.21ZM96.14,82c-.07,0-.1,0-.1.13s0,.14.1.14.12-.05.12-.14S96.22,82,96.14,82Zm.27-.46c-.06,0-.1.06-.1.16s0,.14.1.12.1,0,.1-.14S96.48,81.53,96.41,81.53Zm.27-.27c-.08,0-.11,0-.1.13s0,.14.12.14.09,0,.09-.14S96.75,81.26,96.68,81.26Zm.45-4.12-.21.07a.87.87,0,0,0-.2.1l.56,0,0-.15Zm-.31,2.7s-.08,0-.08.08,0,.08.08,0,.06,0,.06,0S96.86,79.87,96.82,79.84Zm2.4.31h.47a4.73,4.73,0,0,1,.65,0,5,5,0,0,1,.6.07c.19,0,.29.1.31.18a1.11,1.11,0,0,1,.19-.23,1.18,1.18,0,0,1,.22-.21h0s0,0,0,0l0,0h0l.13,0,.16.07h.13l.08-.07s.06,0,.06-.06v0a.25.25,0,0,1,0,.08.34.34,0,0,0,0,.1h0c0-.07,0-.16,0-.28s0-.19,0-.22,0-.15-.07-.26l-.09-.33a2.82,2.82,0,0,1-.09-.27q0-.12-.06-.12l-.29-.13a.84.84,0,0,0,.11-.2s0-.12,0-.22a6.29,6.29,0,0,0-.23-1.22c-.12-.45-.24-.85-.35-1.18a1.89,1.89,0,0,1-.11-.42c0-.22-.09-.45-.14-.68s-.09-.46-.13-.67-.08-.35-.09-.41a.19.19,0,0,1-.13-.1.45.45,0,0,1,0-.16.54.54,0,0,1,0-.18.41.41,0,0,0,0-.12s0-.07-.08-.14a.36.36,0,0,1-.08-.15.36.36,0,0,0-.09-.14l-.17-.22-.17-.22a.31.31,0,0,1-.07-.15.74.74,0,0,0-.57.23,1.82,1.82,0,0,0-.27.52l0,.17a1.83,1.83,0,0,0-.08.25c0,.09,0,.18-.08.26a.57.57,0,0,0,0,.16c-.06,0-.13,0-.19.11a2.16,2.16,0,0,0-.18.34c0,.14-.09.27-.13.4a1.14,1.14,0,0,0-.06.25.15.15,0,0,0,0,.08.11.11,0,0,0,.09,0,1,1,0,0,1-.21.23l-.29.28a1.68,1.68,0,0,0-.25.29.45.45,0,0,0-.11.26.35.35,0,0,1,0,.06.24.24,0,0,0,0,.07l.27-.13c.07.16.12.29.15.38a1.25,1.25,0,0,1,0,.38.08.08,0,0,1-.07,0s0,0-.05,0a3.25,3.25,0,0,0-.17.28.74.74,0,0,0-.12.3c0,.06,0,.12,0,.17s.06.09.15.12,0,.1-.09.11l-.12,0-.12,0a.24.24,0,0,0-.09.12,1.33,1.33,0,0,1,0,.21.41.41,0,0,1-.09.21.49.49,0,0,1-.21.1l-.21.06h0s0,0,0,0l.07.07s.06,0,.06.06a2.86,2.86,0,0,1,.16.28,1.87,1.87,0,0,0,.15.28h.06a.33.33,0,0,0,.07.14q.06.1,0,.15s-.08.09-.21.21a1,1,0,0,0-.2.21,1,1,0,0,0,0,.13.42.42,0,0,1,0,.14A.21.21,0,0,1,97,80s-.06.08-.08.09,0,0,0,0l0-.12a.37.37,0,0,0,0-.12s0,0,0,0v.08a.4.4,0,0,0,.28.33,1,1,0,0,0,.43.13,6.88,6.88,0,0,0,.83-.12A6.47,6.47,0,0,1,99.22,80.15Zm-2-6c-.07,0-.1,0-.1.14s0,.15.1.15.09-.07.09-.17S97.25,74.14,97.19,74.15Zm1.2-.63c-.07,0-.1,0-.1.14s0,.14.1.14.11,0,.11-.14S98.46,73.52,98.39,73.52Zm3,8a.61.61,0,0,0,.56-.37.63.63,0,0,1-.27.16,1.65,1.65,0,0,1-.31,0Z"/></svg>